<?xml version="1.0" standalone="no"?>
<!DOCTYPE svg PUBLIC "-//W3C//DTD SVG 20010904//EN"
 "http://www.w3.org/TR/2001/REC-SVG-20010904/DTD/svg10.dtd">
<svg version="1.0" xmlns="http://www.w3.org/2000/svg"
 width="708.000000pt" height="1280.000000pt" viewBox="0 0 708.000000 1280.000000"
 preserveAspectRatio="xMidYMid meet">
<g transform="translate(0.000000,1280.000000) scale(0.100000,-0.100000)"
fill="#000000" stroke="none">
<path d="M3414 12791 c-100 -24 -190 -100 -259 -220 -54 -92 -90 -188 -165
-446 -32 -110 -72 -238 -89 -285 -76 -205 -124 -449 -187 -955 -72 -580 -89
-662 -202 -995 -90 -262 -199 -426 -350 -527 -56 -37 -59 -38 -152 -38 -193 0
-292 58 -586 336 -202 192 -325 275 -512 345 -238 90 -547 96 -772 15 -74 -27
-75 -28 -107 -90 -50 -95 -42 -157 29 -216 18 -16 97 -58 175 -95 177 -85 226
-118 268 -185 19 -29 50 -66 68 -81 169 -142 524 -464 613 -555 131 -135 188
-207 316 -394 160 -235 279 -458 384 -722 26 -65 66 -157 90 -205 128 -256
166 -532 145 -1063 -11 -298 -29 -438 -156 -1220 -69 -430 -70 -432 -115 -965
-45 -530 -71 -709 -156 -1094 -90 -405 -194 -793 -280 -1036 -47 -134 -86
-274 -150 -537 -30 -125 -68 -271 -84 -323 -47 -156 -75 -276 -155 -665 -41
-203 -84 -404 -95 -445 -12 -49 -16 -77 -9 -81 37 -23 787 -41 1654 -39 462 1
874 0 915 -2 64 -2 81 1 117 21 24 14 54 41 69 62 50 73 64 143 94 474 12 131
33 230 60 285 12 26 20 84 29 220 6 102 29 345 51 540 59 528 69 649 80 945
13 344 34 641 71 1025 60 615 69 709 84 895 8 105 20 348 25 540 21 675 76
1193 165 1548 53 211 99 290 339 577 258 310 315 416 466 870 137 412 172 490
285 629 115 143 268 277 561 492 92 67 191 146 220 175 63 62 160 136 359 274
332 229 455 362 501 541 19 74 14 205 -10 262 -12 31 -20 36 -66 46 -128 28
-247 -1 -390 -94 -36 -23 -130 -95 -210 -161 -161 -132 -231 -181 -305 -214
-161 -73 -245 -120 -370 -210 -249 -180 -336 -225 -451 -237 -57 -6 -164 20
-164 40 0 18 46 112 87 181 57 95 149 219 329 444 188 234 251 325 322 464 58
114 106 182 264 379 251 313 330 457 353 640 6 51 4 59 -28 114 -62 105 -142
165 -219 165 -130 0 -266 -110 -505 -406 -66 -83 -165 -200 -218 -260 -53 -60
-182 -224 -288 -364 -232 -311 -297 -388 -420 -507 -88 -85 -261 -212 -273
-200 -11 11 47 198 91 298 26 57 109 219 186 359 76 140 172 329 212 420 184
408 363 755 429 829 82 93 114 195 96 306 -19 120 -94 232 -192 283 -70 36
-179 38 -248 4 -82 -40 -138 -100 -192 -203 -67 -130 -98 -180 -271 -449 -166
-257 -209 -330 -279 -465 -25 -49 -71 -121 -101 -160 -65 -82 -142 -229 -215
-410 -94 -233 -167 -361 -268 -467 -42 -44 -81 -49 -148 -19 -80 36 -108 107
-108 266 0 108 11 189 60 455 14 74 29 200 34 280 7 105 19 188 45 300 87 376
88 383 89 565 1 190 -9 238 -67 336 -24 41 -39 55 -62 60 -41 9 -143 9 -181 0z"/>
</g>
</svg>
