<svg height="512pt" viewBox="-72 0 512 512" width="512pt" xmlns="http://www.w3.org/2000/svg"><path d="m10 42.222656v427.554688c0 17.796875 14.425781 32.222656 32.222656 32.222656h284.4375c17.792969 0 32.21875-14.425781 32.21875-32.222656v-427.554688c0-17.796875-14.425781-32.222656-32.21875-32.222656h-284.4375c-17.796875 0-32.222656 14.425781-32.222656 32.222656zm0 0" fill="#52607e"/><path d="m326.660156 512h-284.4375c-23.28125 0-42.222656-18.941406-42.222656-42.222656v-427.554688c0-23.28125 18.941406-42.222656 42.222656-42.222656h284.4375c23.28125 0 42.21875 18.941406 42.21875 42.222656v427.554688c0 23.28125-18.941406 42.222656-42.21875 42.222656zm-284.4375-492c-12.253906 0-22.222656 9.96875-22.222656 22.222656v427.554688c0 12.253906 9.96875 22.222656 22.222656 22.222656h284.4375c12.25 0 22.21875-9.96875 22.21875-22.222656v-427.554688c0-12.253906-9.96875-22.222656-22.21875-22.222656zm0 0"/><path d="m308.878906 329h-248.875v-269h248.875v167" fill="#fcfcfc"/><path d="m308.878906 339h-248.875c-5.523437 0-10-4.476562-10-10v-269c0-5.523438 4.476563-10 10-10h248.875c5.523438 0 10 4.476562 10 10v167c0 5.523438-4.476562 10-10 10-5.523437 0-10-4.476562-10-10v-157h-228.875v249h238.875c5.523438 0 10 4.476562 10 10s-4.476562 10-10 10zm0 0"/><path d="m308.878906 284c-.648437 0-1.308594-.070312-1.957031-.199219-.632813-.121093-1.261719-.320312-1.871094-.570312-.601562-.25-1.179687-.558594-1.722656-.921875-.546875-.359375-1.058594-.777344-1.519531-1.238282-.457032-.460937-.878906-.96875-1.25-1.519531-.359375-.539062-.660156-1.121093-.910156-1.730469-.25-.601562-.449219-1.230468-.570313-1.871093-.128906-.640625-.199219-1.300781-.199219-1.949219s.070313-1.308594.199219-1.949219c.121094-.640625.320313-1.269531.570313-1.878906.25-.601563.550781-1.183594.910156-1.722656.371094-.550781.792968-1.058594 1.25-1.519531.460937-.460938.972656-.878907 1.519531-1.238282.542969-.363281 1.121094-.671875 1.722656-.921875.609375-.25 1.238281-.449219 1.871094-.570312 1.289063-.257813 2.617187-.257813 3.90625 0 .640625.121093 1.273437.320312 1.871094.570312.609375.25 1.191406.558594 1.730469.921875.550781.359375 1.058593.777344 1.519531 1.238282.460937.460937.878906.96875 1.242187 1.519531.359375.539062.667969 1.121093.917969 1.722656.25.609375.441406 1.238281.570313 1.878906.128906.640625.199218 1.300781.199218 1.949219s-.070312 1.308594-.199218 1.949219c-.128907.640625-.320313 1.269531-.570313 1.871093-.25.609376-.558594 1.191407-.917969 1.730469-.363281.550781-.78125 1.058594-1.242187 1.519531-.460938.460938-.96875.878907-1.519531 1.238282-.539063.363281-1.121094.671875-1.730469.921875-.597657.25-1.230469.449219-1.871094.570312-.636719.128907-1.296875.199219-1.949219.199219zm0 0"/><path d="m157.136719 393.832031h-29.1875v-29.1875h-40.3125v29.1875h-29.1875v40.308594h29.1875v29.1875h40.3125v-29.1875h29.1875zm0 0" fill="#a5e6ff"/><path d="m127.949219 473.328125h-40.3125c-5.523438 0-10-4.476563-10-10v-19.1875h-19.1875c-5.523438 0-10-4.476563-10-10v-40.308594c0-5.523437 4.476562-10 10-10h19.1875v-19.1875c0-5.523437 4.476562-10 10-10h40.3125c5.523437 0 10 4.476563 10 10v19.1875h19.1875c5.523437 0 10 4.476563 10 10v40.308594c0 5.523437-4.476563 10-10 10h-19.1875v19.1875c0 5.523437-4.476563 10-10 10zm-30.3125-20h20.3125v-19.1875c0-5.523437 4.476562-10 10-10h19.1875v-20.308594h-19.1875c-5.523438 0-10-4.476562-10-10v-19.1875h-20.3125v19.1875c0 5.523438-4.476563 10-10 10h-19.1875v20.308594h19.1875c5.523437 0 10 4.476563 10 10zm0 0"/><path d="m255.699219 421.601562c-9.300781-9.300781-24.378907-9.300781-33.679688 0-9.300781 9.300782-9.300781 24.378907 0 33.679688s24.378907 9.300781 33.679688 0 9.300781-24.378906 0-33.679688zm0 0" fill="#fdbf6c"/><path d="m304.449219 372.691406c-9.300781-9.300781-24.378907-9.300781-33.679688 0-9.300781 9.300782-9.300781 24.378906 0 33.679688 9.300781 9.300781 24.378907 9.300781 33.679688 0 9.300781-9.300782 9.300781-24.378906 0-33.679688zm0 0" fill="#f3756a"/><path d="m255.699219 372.691406c-9.300781-9.300781-24.378907-9.300781-33.679688 0-9.300781 9.300782-9.300781 24.378906 0 33.679688 9.300781 9.300781 24.378907 9.300781 33.679688 0 9.300781-9.300782 9.300781-24.378906 0-33.679688zm0 0" fill="#50b4ff"/><path d="m304.449219 421.601562c-9.300781-9.300781-24.378907-9.300781-33.679688 0-9.300781 9.300782-9.300781 24.378907 0 33.679688s24.378907 9.300781 33.679688 0 9.300781-24.378906 0-33.679688zm0 0" fill="#c1ee92"/><path d="m310.96875 413.984375c.1875-.175781.375-.359375.558594-.542969 6.386718-6.386718 9.902344-14.878906 9.902344-23.910156 0-9.035156-3.515626-17.523438-9.902344-23.914062-6.386719-6.386719-14.878906-9.902344-23.914063-9.902344-9.03125 0-17.523437 3.519531-23.910156 9.902344-.15625.160156-.3125.316406-.464844.476562-.152343-.160156-.304687-.316406-.464843-.476562-6.386719-6.386719-14.878907-9.902344-23.910157-9.902344s-17.523437 3.519531-23.914062 9.902344c-13.183594 13.1875-13.183594 34.640624 0 47.824218.1875.183594.371093.363282.558593.542969-.1875.179687-.375.363281-.558593.546875-13.183594 13.183594-13.183594 34.636719 0 47.820312 6.59375 6.59375 15.25 9.890626 23.910156 9.890626s17.320313-3.296876 23.914063-9.890626c.15625-.15625.3125-.3125.464843-.472656.152344.160156.304688.316406.460938.472656 6.59375 6.59375 15.253906 9.890626 23.914062 9.890626 8.65625 0 17.316407-3.296876 23.910157-9.890626 6.386718-6.386718 9.90625-14.878906 9.90625-23.910156 0-9.035156-3.519532-17.523437-9.90625-23.914062-.179688-.179688-.367188-.363282-.554688-.542969zm-33.121094-34.222656c2.691406-2.695313 6.230469-4.039063 9.765625-4.039063 3.539063 0 7.078125 1.347656 9.773438 4.039063 2.605469 2.609375 4.042969 6.078125 4.042969 9.769531s-1.4375 7.160156-4.046876 9.769531c-5.386718 5.386719-14.152343 5.386719-19.535156 0-5.386718-5.386719-5.386718-14.152343 0-19.539062zm-48.753906 0c5.386719-5.386719 14.152344-5.386719 19.539062 0 5.386719 5.386719 5.386719 14.152343 0 19.539062-5.386718 5.386719-14.152343 5.386719-19.539062 0-5.386719-5.390625-5.386719-14.152343 0-19.539062zm19.539062 68.449219c-5.386718 5.386718-14.152343 5.386718-19.539062 0-5.386719-5.386719-5.386719-14.152344 0-19.539063 2.691406-2.691406 6.230469-4.039063 9.769531-4.039063 3.539063 0 7.074219 1.347657 9.769531 4.039063 5.386719 5.386719 5.386719 14.152344 0 19.539063zm48.75 0c-5.386718 5.386718-14.152343 5.386718-19.539062 0-5.386719-5.386719-5.382812-14.152344 0-19.539063 5.386719-5.386719 14.152344-5.386719 19.539062 0 5.386719 5.386719 5.386719 14.152344 0 19.539063zm0 0"/><path d="m184.441406 114.234375c-34.242187 0-62 27.757813-62 62v101.074219l19.46875-14.675782 21.261719 16.023438 21.261719-16.023438 21.257812 16.023438 21.261719-16.023438 19.488281 14.683594v-101.082031c0-34.242187-27.757812-62-62-62zm0 0" fill="#fdbf6c"/><path d="m205.695312 288.65625c-2.121093 0-4.238281-.671875-6.019531-2.015625l-15.242187-11.484375-15.242188 11.484375c-3.5625 2.6875-8.472656 2.683594-12.039062 0l-15.238282-11.484375-13.453124 10.140625c-3.027344 2.28125-7.085938 2.65625-10.480469.964844-3.394531-1.695313-5.539063-5.160157-5.539063-8.953125v-101.074219c0-39.703125 32.296875-72 72-72 39.699219 0 72 32.296875 72 72v101.082031c0 3.792969-2.144531 7.257813-5.539062 8.949219-3.394532 1.691406-7.453125 1.320313-10.480469-.964844l-13.46875-10.144531-15.242187 11.484375c-1.78125 1.34375-3.898438 2.015625-6.015626 2.015625zm-21.261718-36.023438c2.117187 0 4.238281.671876 6.019531 2.015626l15.242187 11.484374 15.242188-11.484374c3.5625-2.6875 8.472656-2.6875 12.035156 0l3.46875 2.613281v-81.027344c0-28.675781-23.328125-52-52-52-28.675781 0-52 23.324219-52 52v81.015625l3.453125-2.601562c3.5625-2.6875 8.472657-2.6875 12.039063 0l15.238281 11.484374 15.242187-11.484374c1.78125-1.34375 3.898438-2.015626 6.019532-2.015626zm0 0"/><path d="m184.441406 222.539062c-15.363281 0-27.859375-12.5-27.859375-27.859374v-.316407c0-5.523437 4.476563-10 10-10 5.523438 0 10 4.476563 10 10v.316407c0 4.335937 3.523438 7.859374 7.859375 7.859374 4.332032 0 7.855469-3.523437 7.855469-7.859374v-.316407c0-5.523437 4.476563-10 10-10s10 4.476563 10 10v.316407c0 15.359374-12.496094 27.859374-27.855469 27.859374zm0 0"/></svg>