<svg height="493pt" viewBox="-38 0 493 493.656" width="493pt" xmlns="http://www.w3.org/2000/svg"><path d="m392.328125 357.65625c0-87.71875-61.71875-161.257812-144-179.566406v-20.433594h16c13.230469 0 24-10.769531 24-24s-10.769531-24-24-24h-9.304687l-5.710938-32h-81.96875l-5.710938 32h-9.304687c-13.230469 0-24 10.769531-24 24s10.769531 24 24 24h16v20.433594c-82.28125 18.308594-144 91.847656-144 179.566406v24h-16v8c0 37 28.054687 67.535156 64 71.527344v32.472656h272v-32.472656c35.945313-3.992188 64-34.527344 64-71.527344v-8h-16zm-211.59375-264h55.1875l2.855469 16h-60.898438zm-36.40625 40c0-4.410156 3.582031-8 8-8h112c4.414063 0 8 3.589844 8 8 0 4.40625-3.585937 8-8 8h-112c-4.417969 0-8-3.59375-8-8zm40 24h48v17.617188c-7.863281-1.035157-15.863281-1.617188-24-1.617188s-16.136719.582031-24 1.617188zm-144 200c0-92.632812 75.367187-168 168-168s168 75.367188 168 168v24h-49.238281l-11.90625-70.089844c-2.871094-18.589844-17.953125-32.207031-36.414063-33.628906.957031-2.59375 1.558594-5.363281 1.558594-8.28125 0-13.230469-10.769531-24-24-24h-48c-4.992187 0-9.632813 1.535156-13.480469 4.160156-6.910156-11.984375-19.71875-20.160156-34.519531-20.160156h-24v24c0 9.039062 3.128906 17.296875 8.207031 24h-3.519531c-19.878906 0-36.503906 14.265625-39.535156 33.910156l-3.703125 24.074219c-21.320313 5.75-37.601563 23.773437-40.808594 46.015625h-16.640625zm216 16v-8h-16v8c0 2.816406.574219 5.488281 1.472656 8h-17.472656v-48c0-4.417969 3.582031-8 8-8 4.414063 0 8 3.582031 8 8v16h16v-16c0-13.230469-10.769531-24-24-24s-24 10.769531-24 24v16.886719c-10.175781-10.40625-24.335937-16.886719-40-16.886719-9.894531 0-19.441406 2.710938-27.929687 7.625-7.742188-4.511719-16.636719-7.203125-26.140626-7.527344l3.03125-19.746094c1.824219-11.792968 11.800782-20.351562 23.726563-20.351562h134.625c10.582031 0 19.597656 6.757812 22.792969 16.601562-14.832032 2.773438-26.105469 15.765626-26.105469 31.398438v32c0 4.414062-3.585937 8-8 8-4.417969 0-8-3.585938-8-8zm-144-24c19.3125 0 35.472656 13.769531 39.191406 32h-78.382812c3.71875-18.230469 19.878906-32 39.191406-32zm55.359375 32c-1.609375-11.152344-6.488281-21.222656-13.664062-29.25 4.542968-1.75 9.351562-2.75 14.304687-2.75 19.3125 0 35.472656 13.769531 39.191406 32zm-15.359375-128v-8h8c13.230469 0 24 10.769531 24 24v8h-8c-13.230469 0-24-10.769531-24-24zm104 24h-48c-4.417969 0-8-3.585938-8-8 0-4.417969 3.582031-8 8-8h48c4.414063 0 8 3.582031 8 8 0 4.414062-3.585937 8-8 8zm32 96v-32c0-7.816406 5.648437-14.320312 13.0625-15.703125l9.457031 55.703125h-24c.90625-2.511719 1.480469-5.183594 1.480469-8zm-200 104v-16h240v16zm248-32h-256c-28.167969 0-51.535156-20.894531-55.433594-48h366.859375c-3.890625 27.105469-27.257812 48-55.425781 48zm0 0"/><path d="m13.984375 132.6875c-8.808594 8.800781-13.65625 20.511719-13.65625 32.96875s4.847656 24.167969 13.65625 32.96875l12.6875 12.6875 11.3125-11.3125-12.6875-12.6875c-5.785156-5.785156-8.96875-13.480469-8.96875-21.65625s3.183594-15.871094 8.96875-21.65625l1.375-1.375c8.808594-8.800781 13.65625-20.511719 13.65625-32.96875s-4.847656-24.167969-13.65625-32.96875l-12.6875-12.6875-11.3125 11.3125 12.6875 12.6875c5.785156 5.785156 8.96875 13.480469 8.96875 21.65625s-3.183594 15.871094-8.96875 21.65625zm0 0"/><path d="m79.359375 80c5.785156 5.785156 8.96875 13.480469 8.96875 21.65625s-3.183594 15.871094-8.96875 21.65625l-12.6875 12.6875 11.3125 11.3125 12.6875-12.6875c8.808594-8.800781 13.65625-20.511719 13.65625-32.96875s-4.847656-24.167969-13.65625-32.96875l-1.375-1.375c-5.785156-5.785156-8.96875-13.480469-8.96875-21.65625s3.183594-15.871094 8.96875-21.65625l12.6875-12.6875-11.3125-11.3125-12.6875 12.6875c-8.808594 8.800781-13.65625 20.511719-13.65625 32.96875s4.847656 24.167969 13.65625 32.96875zm0 0"/><path d="m391.359375 144c5.785156 5.785156 8.96875 13.480469 8.96875 21.65625s-3.183594 15.871094-8.96875 21.65625l-12.6875 12.6875 11.3125 11.3125 12.6875-12.6875c8.808594-8.800781 13.65625-20.511719 13.65625-32.96875s-4.847656-24.167969-13.65625-32.96875l-1.375-1.375c-5.785156-5.785156-8.96875-13.480469-8.96875-21.65625s3.183594-15.871094 8.96875-21.65625l12.6875-12.6875-11.3125-11.3125-12.6875 12.6875c-8.808594 8.800781-13.65625 20.511719-13.65625 32.96875s4.847656 24.167969 13.65625 32.96875zm0 0"/><path d="m325.984375 68.6875c-8.808594 8.800781-13.65625 20.511719-13.65625 32.96875s4.847656 24.167969 13.65625 32.96875l12.6875 12.6875 11.3125-11.3125-12.6875-12.6875c-5.785156-5.785156-8.96875-13.480469-8.96875-21.65625s3.183594-15.871094 8.96875-21.65625l1.375-1.375c8.808594-8.800781 13.65625-20.511719 13.65625-32.96875s-4.847656-24.167969-13.65625-32.96875l-12.6875-12.6875-11.3125 11.3125 12.6875 12.6875c5.785156 5.785156 8.96875 13.480469 8.96875 21.65625s-3.183594 15.871094-8.96875 21.65625zm0 0"/><path d="m360.328125 357.65625c0-41.839844-16.648437-80.832031-46.871094-109.785156l-11.066406 11.554687c27.042969 25.910157 41.9375 60.789063 41.9375 98.230469zm0 0"/><path d="m301.222656 237.34375c-5.359375-4.152344-11.046875-7.96875-16.894531-11.34375l-8 13.847656c5.222656 3.023438 10.3125 6.441406 15.105469 10.144532zm0 0"/></svg>