<svg height="384pt" viewBox="0 0 384 384" width="384pt" xmlns="http://www.w3.org/2000/svg"><path d="m192 384c55.070312 0 107.503906-23.640625 143.839844-64.855469.25-.289062.425781-.609375.648437-.90625.335938-.4375.671875-.871093.960938-1.335937.269531-.4375.488281-.902344.71875-1.359375.230469-.480469.472656-.949219.648437-1.453125.175782-.480469.304688-.976563.429688-1.472656.128906-.503907.265625-1 .347656-1.503907.078125-.503906.109375-1.007812.140625-1.519531.035156-.515625.066406-1.027344.050781-1.539062-.015625-.503907-.082031-1-.144531-1.503907-.066406-.519531-.128906-1.023437-.25-1.535156-.109375-.496094-.269531-.96875-.429687-1.449219-.160157-.496094-.328126-.992187-.535157-1.46875-.210937-.472656-.464843-.921875-.730469-1.378906-.253906-.453125-.511718-.910156-.816406-1.34375-.3125-.4375-.664062-.839844-1.023437-1.253906-.246094-.289063-.441407-.601563-.710938-.875l-104.519531-104.527344 105.246094-105.246094c.257812-.257812.441406-.5625.679687-.832031.371094-.425781.738281-.839844 1.050781-1.289063.300782-.421874.550782-.871093.804688-1.320312.265625-.457031.523438-.910156.730469-1.390625.214843-.480469.375-.96875.542969-1.464844.160156-.480469.320312-.960937.433593-1.457031.117188-.511719.183594-1.015625.246094-1.535156.066406-.503906.128906-1 .144531-1.503906.015625-.511719-.015625-1.023438-.046875-1.535157s-.066406-1.015625-.144531-1.527343c-.082031-.503907-.207031-.992188-.335938-1.496094-.128906-.503906-.265624-1-.441406-1.488282-.183594-.488281-.40625-.960937-.640625-1.441406-.222656-.464844-.445312-.925781-.71875-1.375-.28125-.464844-.617187-.894531-.953125-1.335937-.222656-.289063-.390625-.609375-.628906-.886719-36.539062-41.683594-89.242188-65.59375-144.59375-65.59375-105.863281 0-192 86.128906-192 192s86.136719 192 192 192zm0-352c41.128906 0 80.480469 15.886719 110.136719 43.96875l-105.449219 105.4375c-3 3-4.6875 7.074219-4.6875 11.3125 0 4.242188 1.6875 8.3125 4.6875 11.3125l104.6875 104.6875c-29.445312 27.640625-68.519531 43.28125-109.375 43.28125-88.222656 0-160-71.777344-160-160s71.777344-160 160-160zm0 0"/><path d="m368 176h-8c-8.832031 0-16 7.167969-16 16s7.167969 16 16 16h8c8.832031 0 16-7.167969 16-16s-7.167969-16-16-16zm0 0"/><path d="m296 176c-8.832031 0-16 7.167969-16 16s7.167969 16 16 16h8c8.832031 0 16-7.167969 16-16s-7.167969-16-16-16zm0 0"/><path d="m168 112c13.230469 0 24-10.769531 24-24s-10.769531-24-24-24-24 10.769531-24 24 10.769531 24 24 24zm0 0"/></svg>