<?xml version="1.0"?>
<svg xmlns="http://www.w3.org/2000/svg" xmlns:xlink="http://www.w3.org/1999/xlink" version="1.1" id="Capa_1" x="0px" y="0px" viewBox="0 0 512 512" style="enable-background:new 0 0 512 512;" xml:space="preserve" width="512px" height="512px" class=""><g><path style="fill:#FFE92F" d="M93.012,487.025c24.276,0,29.777-38.536,54.052-38.536c24.276,0,19.763,38.798,44.039,38.798  c24.277,0,28.791-38.798,53.068-38.798s19.763,38.798,44.04,38.798c24.28,0,28.793-38.798,53.073-38.798  s20.989,38.536,45.268,38.536c24.292,0,46.272-19.668,49.094-43.929l11.666-100.286c0.728-6.259-3.155-12.133-9.199-13.916  l-128.782-37.987c-10.502-3.098-8.505-18.542,2.762-21.357l139.356-34.821c5.228-1.306,9.1-5.714,9.723-11.066l0.981-8.43  c12.24-105.22-63.241-190.518-168.591-190.518l0,0c-105.35,0-200.676,85.297-212.916,190.517L54.138,443.095  C51.316,467.357,68.72,487.025,93.012,487.025z" data-original="#FFE92F" class=""/><path style="fill:#FFFFFF" d="M379.615,151.545c-2.398,20.616-21.075,37.328-41.716,37.328s-35.43-16.712-33.032-37.328  s21.075-37.328,41.716-37.328S382.014,130.929,379.615,151.545z" data-original="#FFFFFF" class=""/><circle style="fill:#00F4FF" cx="478.81" cy="288.391" r="25.411" data-original="#2B84E9" class="" data-old_color="#155BA7"/><path style="fill:#2676C6" d="M478.808,262.978c-3.697,0-7.206,0.796-10.375,2.216c8.86,3.969,15.035,12.858,15.035,23.195  s-6.176,19.225-15.035,23.195c3.169,1.42,6.678,2.216,10.375,2.216c14.034,0,25.411-11.377,25.411-25.411  C504.219,274.355,492.842,262.978,478.808,262.978z" data-original="#2676C6" class=""/><g>
	<path style="fill:#FFD82F" d="M438.114,328.894l-61-17.993l-12.155,102.102c-1.701,14.291-5.472,27.83-10.964,40.363   c11.464,10.365,13.678,33.659,32.557,33.659c24.291,0,46.272-19.668,49.094-43.929l11.666-100.286   C448.04,336.552,444.158,330.677,438.114,328.894z" data-original="#FFD82F" class=""/>
	<path style="fill:#FFD82F" d="M293.562,24.715L293.562,24.715c-1.545,0-3.088,0.022-4.628,0.058   c66.997,18.19,112.34,83.186,103.888,154.181l-8.641,72.583l67.268-16.808c5.228-1.306,9.1-5.714,9.723-11.066l0.981-8.43   C474.393,110.013,398.912,24.715,293.562,24.715z" data-original="#FFD82F" class=""/>
</g><path d="M387.345,152.444c1.424-12.245-2.077-23.802-9.859-32.541c-7.733-8.684-18.708-13.467-30.903-13.467  c-24.428,0-46.61,19.833-49.446,44.21c-1.424,12.245,2.077,23.802,9.859,32.541c7.733,8.684,18.708,13.467,30.903,13.467  c0.001,0-0.001,0,0.001,0C362.327,196.654,384.509,176.82,387.345,152.444z M371.885,150.645  c-1.952,16.788-17.199,30.446-33.986,30.445c-7.693,0-14.541-2.931-19.279-8.254c-4.788-5.377-6.927-12.62-6.023-20.393  c1.952-16.788,17.199-30.445,33.986-30.445c7.693,0,14.541,2.931,19.279,8.254C370.651,135.63,372.79,142.872,371.885,150.645z" data-original="#000000" class="active-path" style="fill:#155BA7" data-old_color="#005BFF"/><path d="M350.705,135.453c-5.483,0-10.444,4.439-11.081,9.915s3.291,9.915,8.774,9.915s10.444-4.439,11.081-9.915  C360.116,139.892,356.187,135.453,350.705,135.453z" data-original="#000000" class="active-path" style="fill:#155BA7" data-old_color="#005BFF"/><path d="M72.916,214.333L54.023,376.738c-0.496,4.269,2.561,8.132,6.831,8.628c0.305,0.035,0.608,0.053,0.909,0.053  c3.895,0,7.259-2.92,7.72-6.883l18.892-162.405C100.154,114.874,192.2,32.496,293.562,32.496c48.503,0,91.919,18.76,122.251,52.824  c30.581,34.345,44.293,80.163,38.61,129.014l-0.981,8.431c-0.246,2.123-1.806,3.897-3.88,4.415l-100.781,25.182  c-4.169,1.042-6.704,5.266-5.663,9.436c1.042,4.169,5.267,6.705,9.436,5.663l100.78-25.182c8.32-2.079,14.576-9.198,15.567-17.716  l0.981-8.43c6.202-53.323-8.873-103.455-42.447-141.162c-33.324-37.425-80.868-58.037-133.874-58.037c-0.003,0,0.002,0-0.001,0  c-52.866,0-104.922,20.523-146.563,57.783C105.365,111.97,79.056,161.553,72.916,214.333z" data-original="#000000" class="active-path" style="fill:#155BA7" data-old_color="#005BFF"/><path d="M440.315,321.431l-128.782-37.988c-0.561-0.165-1.33-0.392-1.299-1.902c0.025-1.219,0.841-3.716,3.746-4.441l8.383-2.095  c4.169-1.042,6.704-5.267,5.663-9.436c-1.042-4.169-5.265-6.704-9.436-5.663l-8.383,2.095c-8.955,2.238-15.342,10.139-15.531,19.213  c-0.171,8.14,4.717,14.874,12.454,17.156l128.782,37.987c2.419,0.713,3.963,3.049,3.671,5.553l-11.666,100.286  c-2.376,20.428-20.933,37.047-41.364,37.047c-6.807,0-10.042-4.634-15.801-15.209c-5.661-10.393-12.705-23.328-29.467-23.328  c-16.055,0-24.944,11.977-32.785,22.543c-7.506,10.114-12.617,16.255-20.289,16.255c-6.672,0-9.721-4.616-15.086-15.15  c-5.083-9.98-12.046-23.649-28.953-23.649c-16.054,0-24.941,11.977-32.782,22.543c-7.506,10.113-12.615,16.254-20.285,16.254  c-6.672,0-9.721-4.616-15.086-15.15c-5.084-9.98-12.046-23.648-28.953-23.648c-0.001,0,0,0-0.001,0  c-15.957,0-25.109,11.843-33.183,22.291c-7.81,10.108-13.112,16.245-20.869,16.245c-9.452,0-17.875-3.613-23.716-10.174  c-5.9-6.626-8.538-15.531-7.428-25.075l3.124-26.849c0.496-4.269-2.561-8.132-6.83-8.629c-4.26-0.489-8.132,2.561-8.63,6.83  l-3.124,26.849c-1.629,14.016,2.371,27.235,11.264,37.223c8.836,9.923,21.386,15.388,35.34,15.388  c15.959,0,25.11-11.843,33.185-22.292c7.81-10.107,13.111-16.244,20.868-16.244c6.672,0,9.721,4.616,15.086,15.15  c5.084,9.98,12.046,23.648,28.953,23.648c16.054,0,24.941-11.977,32.782-22.543c7.506-10.113,12.615-16.254,20.285-16.254  c6.672,0,9.721,4.616,15.086,15.15c5.084,9.98,12.046,23.649,28.953,23.649c16.055,0,24.944-11.977,32.785-22.543  c7.506-10.114,12.617-16.255,20.289-16.255c6.806,0,10.041,4.634,15.8,15.208c5.661,10.393,12.705,23.328,29.468,23.328  c28.073,0,53.563-22.794,56.824-50.811l11.666-100.287C456.21,333.661,450.016,324.292,440.315,321.431z" data-original="#000000" class="active-path" style="fill:#155BA7" data-old_color="#005BFF"/><path d="M478.808,255.197c-18.302,0-33.192,14.89-33.192,33.192s14.89,33.192,33.192,33.192S512,306.691,512,288.389  C512,270.087,497.11,255.197,478.808,255.197z M478.808,306.018c-9.721,0-17.629-7.908-17.629-17.629s7.908-17.629,17.629-17.629  s17.629,7.909,17.629,17.629S488.529,306.018,478.808,306.018z" data-original="#000000" class="active-path" style="fill:#155BA7" data-old_color="#005BFF"/><path d="M139.029,53.854c0-4.298-3.483-7.781-7.781-7.781H7.781C3.483,46.072,0,49.556,0,53.854c0,4.298,3.483,7.781,7.781,7.781  h123.466C135.545,61.635,139.029,58.151,139.029,53.854z" data-original="#000000" class="active-path" style="fill:#155BA7" data-old_color="#005BFF"/><path d="M85.077,85.671c0-4.298-3.483-7.781-7.781-7.781H38.562c-4.298,0-7.781,3.484-7.781,7.781c0,4.298,3.483,7.781,7.781,7.781  h38.734C81.594,93.452,85.077,89.968,85.077,85.671z" data-original="#000000" class="active-path" style="fill:#155BA7" data-old_color="#005BFF"/></g> </svg>
