<?xml version="1.0" encoding="iso-8859-1"?>
<!-- Generator: Adobe Illustrator 19.0.0, SVG Export Plug-In . SVG Version: 6.00 Build 0)  -->
<svg version="1.1" id="Capa_1" xmlns="http://www.w3.org/2000/svg" xmlns:xlink="http://www.w3.org/1999/xlink" x="0px" y="0px"
	 viewBox="0 0 512 512" style="enable-background:new 0 0 512 512;" xml:space="preserve">
<g>
	<g>
		<path d="M256,121c-8.276,0-15,6.724-15,15s6.724,15,15,15s15-6.724,15-15S264.276,121,256,121z"/>
	</g>
</g>
<g>
	<g>
		<path d="M471.424,386.21c-0.776-3.911-3.076-7.339-6.387-9.551L283.041,256l181.996-120.659c3.311-2.212,5.61-5.64,6.387-9.551
			c0.776-3.896-0.029-7.954-2.241-11.265C421.707,43.437,341.371,0,256,0C115.39,0,0,115.39,0,256s115.39,256,256,256
			c85.371,0,165.707-43.437,213.183-114.525C471.395,394.164,472.201,390.107,471.424,386.21z M211,136c0-24.814,20.186-45,45-45
			c24.814,0,45,20.186,45,45c0,24.814-20.186,45-45,45C231.186,181,211,160.814,211,136z"/>
	</g>
</g>
<g>
	<g>
		<path d="M467,211c-24.814,0-45,20.186-45,45c0,24.814,20.186,45,45,45c24.814,0,45-20.186,45-45C512,231.186,491.814,211,467,211z
			"/>
	</g>
</g>
<g>
	<g>
		<circle cx="377" cy="256" r="15"/>
	</g>
</g>
<g>
</g>
<g>
</g>
<g>
</g>
<g>
</g>
<g>
</g>
<g>
</g>
<g>
</g>
<g>
</g>
<g>
</g>
<g>
</g>
<g>
</g>
<g>
</g>
<g>
</g>
<g>
</g>
<g>
</g>
</svg>
