<?xml version="1.0" standalone="no"?><!DOCTYPE svg PUBLIC "-//W3C//DTD SVG 1.1//EN" "http://www.w3.org/Graphics/SVG/1.1/DTD/svg11.dtd"><svg class="icon" height="512" viewBox="0 0 1024 1024" version="1.1" xmlns="http://www.w3.org/2000/svg"><path fill="blue" d="M812.250182 491.688306c-26.092604 26.098761-68.403159 26.098761-94.494736 0L574.957835 348.896853l0 483.149842c0 35.314556-28.631565 63.952279-63.952279 63.952279-35.326871 0-63.952279-28.637723-63.952279-63.952279L447.053277 350.891898l-140.802566 140.796408c-26.092604 26.098761-68.403159 26.098761-94.50192 0-26.098761-26.092604-26.098761-68.403159 0-94.50192l250.103123-250.103123c13.801114-13.801114 32.077739-19.805749 50.151165-19.012451 18.072399-0.793297 36.35005 5.212363 50.145007 19.012451l250.103123 250.103123C838.348944 423.285147 838.348944 465.595703 812.250182 491.688306z" /></svg>