<?xml version="1.0" encoding="iso-8859-1"?>
<!-- Generator: Adobe Illustrator 19.0.0, SVG Export Plug-In . SVG Version: 6.00 Build 0)  -->
<svg version="1.1" id="Capa_1" xmlns="http://www.w3.org/2000/svg" xmlns:xlink="http://www.w3.org/1999/xlink" x="0px" y="0px"
	 viewBox="0 0 60 60" style="enable-background:new 0 0 60 60;" xml:space="preserve">
<g>
	<g>
		<path d="M56.317,0H3.683C1.652,0,0,1.652,0,3.683v52.635C0,58.348,1.652,60,3.683,60h52.635C58.348,60,60,58.348,60,56.317V3.683
			C60,1.652,58.348,0,56.317,0z M58,56.317C58,57.245,57.245,58,56.317,58H3.683C2.755,58,2,57.245,2,56.317V3.683
			C2,2.755,2.755,2,3.683,2h52.635C57.245,2,58,2.755,58,3.683V56.317z"/>
		<path d="M16.653,21c0.289,1.738,1.778,3,3.54,3h19.613c1.762,0,3.251-1.262,3.54-3l2.137-12.819
			c0.174-1.043-0.118-2.104-0.801-2.911C43.999,4.463,43.001,4,41.943,4H18.057c-1.058,0-2.056,0.463-2.739,1.27
			c-0.683,0.807-0.975,1.868-0.801,2.91L16.653,21z M16.844,6.563C17.146,6.205,17.589,6,18.057,6h23.887
			c0.468,0,0.91,0.205,1.213,0.563c0.303,0.356,0.432,0.826,0.354,1.289l-2.137,12.82C41.246,21.441,40.587,22,39.807,22H20.193
			c-0.78,0-1.439-0.559-1.567-1.328L16.489,7.851C16.412,7.389,16.541,6.919,16.844,6.563z"/>
		<path d="M29,8h-8v12h8V8z M27,10v3h-4v-3H27z M23,18v-3h4v3H23z"/>
		<path d="M39,8h-8v12h8V8z M37,10v3h-4v-3H37z M33,18v-3h4v3H33z"/>
		<path d="M21,50H9c-0.553,0-1,0.447-1,1s0.447,1,1,1h12c0.553,0,1-0.447,1-1S21.553,50,21,50z"/>
		<path d="M9,48h11c0.553,0,1-0.447,1-1s-0.447-1-1-1H9c-0.553,0-1,0.447-1,1S8.447,48,9,48z"/>
		<path d="M9,44h9c0.553,0,1-0.447,1-1s-0.447-1-1-1H9c-0.553,0-1,0.447-1,1S8.447,44,9,44z"/>
		<path d="M9,40h9c0.553,0,1-0.447,1-1s-0.447-1-1-1H9c-0.553,0-1,0.447-1,1S8.447,40,9,40z"/>
		<path d="M9,36h11c0.553,0,1-0.447,1-1s-0.447-1-1-1H9c-0.553,0-1,0.447-1,1S8.447,36,9,36z"/>
		<path d="M22,30H9c-0.553,0-1,0.447-1,1s0.447,1,1,1h13c0.553,0,1-0.447,1-1S22.553,30,22,30z"/>
		<path d="M51,50H39c-0.553,0-1,0.447-1,1s0.447,1,1,1h12c0.553,0,1-0.447,1-1S51.553,50,51,50z"/>
		<path d="M51,46H40c-0.553,0-1,0.447-1,1s0.447,1,1,1h11c0.553,0,1-0.447,1-1S51.553,46,51,46z"/>
		<path d="M51,42h-9c-0.553,0-1,0.447-1,1s0.447,1,1,1h9c0.553,0,1-0.447,1-1S51.553,42,51,42z"/>
		<path d="M51,38h-9c-0.553,0-1,0.447-1,1s0.447,1,1,1h9c0.553,0,1-0.447,1-1S51.553,38,51,38z"/>
		<path d="M51,34H40c-0.553,0-1,0.447-1,1s0.447,1,1,1h11c0.553,0,1-0.447,1-1S51.553,34,51,34z"/>
		<path d="M51,30H38c-0.553,0-1,0.447-1,1s0.447,1,1,1h13c0.553,0,1-0.447,1-1S51.553,30,51,30z"/>
	</g>
</g>
<g>
</g>
<g>
</g>
<g>
</g>
<g>
</g>
<g>
</g>
<g>
</g>
<g>
</g>
<g>
</g>
<g>
</g>
<g>
</g>
<g>
</g>
<g>
</g>
<g>
</g>
<g>
</g>
<g>
</g>
</svg>
