<?xml version="1.0"?>
<svg xmlns="http://www.w3.org/2000/svg" viewBox="0 0 50 50">
    <path style="line-height:normal;text-indent:0;text-align:start;text-decoration-line:none;text-decoration-style:solid;text-decoration-color:#000;text-transform:none;block-progression:tb;isolation:auto;mix-blend-mode:normal" d="M 25 1 A 1 1 0 0 0 24 2 A 1 1 0 0 0 25 3 A 1 1 0 0 0 26 2 A 1 1 0 0 0 25 1 z M 7 3 L 7 47 L 22 47 L 22 45 L 9 45 L 9 5 L 22 5 L 22 3 L 7 3 z M 28 3 L 28 5 L 41 5 L 41 45 L 28 45 L 28 47 L 43 47 L 43 3 L 28 3 z M 25 4 A 1 1 0 0 0 24 5 A 1 1 0 0 0 25 6 A 1 1 0 0 0 26 5 A 1 1 0 0 0 25 4 z M 25 7 A 1 1 0 0 0 24 8 A 1 1 0 0 0 25 9 A 1 1 0 0 0 26 8 A 1 1 0 0 0 25 7 z M 25 10 A 1 1 0 0 0 24 11 A 1 1 0 0 0 25 12 A 1 1 0 0 0 26 11 A 1 1 0 0 0 25 10 z M 14 12 L 14 14 L 22 14 L 22 12 L 14 12 z M 28 12 L 28 14 L 36 14 L 36 12 L 28 12 z M 25 13 A 1 1 0 0 0 24 14 A 1 1 0 0 0 25 15 A 1 1 0 0 0 26 14 A 1 1 0 0 0 25 13 z M 25 16 A 1 1 0 0 0 24 17 A 1 1 0 0 0 25 18 A 1 1 0 0 0 26 17 A 1 1 0 0 0 25 16 z M 14 17 L 14 19 L 22 19 L 22 17 L 14 17 z M 28 17 L 28 19 L 36 19 L 36 17 L 28 17 z M 25 19 A 1 1 0 0 0 24 20 A 1 1 0 0 0 25 21 A 1 1 0 0 0 26 20 A 1 1 0 0 0 25 19 z M 14 22 L 14 24 L 22 24 L 22 22 L 14 22 z M 25 22 A 1 1 0 0 0 24 23 A 1 1 0 0 0 25 24 A 1 1 0 0 0 26 23 A 1 1 0 0 0 25 22 z M 28 22 L 28 24 L 36 24 L 36 22 L 28 22 z M 25 25 A 1 1 0 0 0 24 26 A 1 1 0 0 0 25 27 A 1 1 0 0 0 26 26 A 1 1 0 0 0 25 25 z M 14 27 L 14 29 L 22 29 L 22 27 L 14 27 z M 28 27 L 28 29 L 36 29 L 36 27 L 28 27 z M 25 28 A 1 1 0 0 0 24 29 A 1 1 0 0 0 25 30 A 1 1 0 0 0 26 29 A 1 1 0 0 0 25 28 z M 25 31 A 1 1 0 0 0 24 32 A 1 1 0 0 0 25 33 A 1 1 0 0 0 26 32 A 1 1 0 0 0 25 31 z M 28 32 L 28 34 L 36 34 L 36 32 L 28 32 z M 25 34 A 1 1 0 0 0 24 35 A 1 1 0 0 0 25 36 A 1 1 0 0 0 26 35 A 1 1 0 0 0 25 34 z M 25 37 A 1 1 0 0 0 24 38 A 1 1 0 0 0 25 39 A 1 1 0 0 0 26 38 A 1 1 0 0 0 25 37 z M 28 37 L 28 39 L 36 39 L 36 37 L 28 37 z M 25 40 A 1 1 0 0 0 24 41 A 1 1 0 0 0 25 42 A 1 1 0 0 0 26 41 A 1 1 0 0 0 25 40 z M 25 43 A 1 1 0 0 0 24 44 A 1 1 0 0 0 25 45 A 1 1 0 0 0 26 44 A 1 1 0 0 0 25 43 z M 25 46 A 1 1 0 0 0 24 47 A 1 1 0 0 0 25 48 A 1 1 0 0 0 26 47 A 1 1 0 0 0 25 46 z"/>
</svg>
