<?xml version="1.0" encoding="utf-8"?>
<!-- Svg Vector Icons : http://www.onlinewebfonts.com/icon -->
<!DOCTYPE svg PUBLIC "-//W3C//DTD SVG 1.1//EN" "http://www.w3.org/Graphics/SVG/1.1/DTD/svg11.dtd">
<svg version="1.1" xmlns="http://www.w3.org/2000/svg" xmlns:xlink="http://www.w3.org/1999/xlink" x="0px" y="0px" viewBox="0 0 1000 1000" enable-background="new 0 0 1000 1000" xml:space="preserve">
<metadata> Svg Vector Icons : http://www.onlinewebfonts.com/icon </metadata>
<g><g transform="translate(0.000000,511.000000) scale(0.100000,-0.100000)"><path d="M3001.7,3311.8c-743.7-84.3-1406.9-394.8-1928.2-902.8C364.3,1717.1,11.6,743.4,119-230.3C161.1-611.8,247.4-916.5,416-1269.2c697.7-1456.7,2382.5-2177.4,3908.2-1673.3c622.9,205.1,1161.5,584.6,1562.1,1100.2c145.7,187.8,314.3,467.7,299,492.6c-5.8,9.6-571.2,339.3-1257.4,734.1c-684.3,392.9-1245.9,720.7-1245.9,726.4c0,5.7,561.6,333.5,1245.9,726.4c686.2,394.8,1251.6,724.5,1257.4,734.1c15.3,24.9-153.3,302.8-299,492.6c-506,649.8-1221,1079.1-2041.3,1219C3630.4,3319.4,3204.9,3334.8,3001.7,3311.8z M3822.1,2976.4c599.9-105.4,1134.7-383.3,1567.9-814.6c157.2-155.3,381.4-435.1,381.4-471.5c0-9.6-609.5-366.1-1351.3-791.6c-743.7-427.4-1351.3-780.1-1351.3-787.8c0-5.7,607.6-360.3,1351.3-787.8c741.8-425.5,1351.3-782,1351.3-791.6c1.9-59.4-352.7-463.8-550.1-628.7c-929.6-774.4-2200.4-918.1-3245-368c-808.9,427.4-1359,1173-1525.7,2068.1c-49.8,264.5-49.8,751.4,0,1015.9c109.3,592.3,385.3,1113.6,806.9,1533.4c243.4,243.4,442.8,391,722.6,536.7c318.2,164.8,686.2,276,1040.8,316.3C3220.2,3026.2,3609.3,3012.8,3822.1,2976.4z"/><path d="M2881,2410.9c-208.9-105.4-329.7-295.2-329.7-519.4c0-166.8,42.2-283.7,145.7-398.7c124.6-138,260.7-199.3,438.9-199.3c120.7,0,161,7.7,266.4,61.3c214.7,105.4,323.9,281.8,325.8,519.4c1.9,189.8-51.7,312.4-191.7,438.9c-122.7,111.2-237.7,155.3-410.2,155.3C3022.8,2468.4,2976.8,2456.9,2881,2410.9z M3300.7,2117.7c84.3-55.6,141.8-191.7,124.6-287.5c-28.8-155.3-203.2-266.4-352.7-226.2c-88.2,24.9-189.8,115-207,185.9c-23,93.9,3.8,218.5,61.3,279.8c69,72.8,109.2,90.1,220.4,90.1C3208.7,2161.7,3254.7,2148.3,3300.7,2117.7z"/><path d="M6139.4,670.5c-498.3-178.3-538.6-856.8-65.2-1090.6c92-46,132.3-53.7,262.6-53.7c180.2,1.9,297.1,47.9,415.9,166.8c126.5,126.5,159.1,210.8,159.1,417.8c0,153.3-7.7,195.5-44.1,264.5C6725.9,639.9,6411.6,766.4,6139.4,670.5z M6461.4,363.9c274.1-138,153.3-565.4-151.4-534.8c-151.4,15.4-260.7,134.2-260.7,281.8C6049.3,321.7,6271.6,459.7,6461.4,363.9z"/><path d="M7678.5,687.8c-161-42.2-312.4-168.7-394.8-327.8c-36.4-70.9-44.1-116.9-44.1-249.2c0-138,7.7-176.3,49.9-258.8c65.2-122.7,172.5-226.2,293.3-281.8c143.7-65.2,366.1-61.3,500.3,7.7c352.7,184,442.8,630.6,185.9,916.2c-116.9,130.3-247.2,195.5-408.3,203.2C7791.6,701.2,7711.1,697.4,7678.5,687.8z M8002.4,335.1c208.9-159.1,84.3-511.8-178.3-511.8c-147.6,0-289.4,141.8-289.4,287.5C7534.8,342.8,7814.6,476.9,8002.4,335.1z"/><path d="M9164,687.8c-180.2-59.4-356.5-222.3-410.2-379.5c-17.2-49.8-30.7-138-30.7-197.4c0-151.4,46-270.3,147.6-383.3c132.2-147.6,249.2-201.3,437-201.3c184,0,302.8,46,425.5,166.8C9850.2-192,9900-65.5,9900,110.8c0,245.3-126.5,442.8-343.1,538.6C9455.3,695.4,9246.4,714.6,9164,687.8z M9451.5,360c86.3-44.1,153.3-153.3,153.3-249.2c0-208.9-237.7-350.8-421.7-251.1c-109.3,57.5-159.1,145.7-149.5,266.4c9.6,116.9,53.7,184,149.5,235.8C9269.4,407.9,9357.5,407.9,9451.5,360z"/></g></g>
</svg>