<?xml version="1.0" encoding="utf-8"?>
<!-- Svg Vector Icons : http://www.onlinewebfonts.com/icon -->
<!DOCTYPE svg PUBLIC "-//W3C//DTD SVG 1.1//EN" "http://www.w3.org/Graphics/SVG/1.1/DTD/svg11.dtd">
<svg version="1.1" xmlns="http://www.w3.org/2000/svg" xmlns:xlink="http://www.w3.org/1999/xlink" x="0px" y="0px" viewBox="0 0 1000 1000" enable-background="new 0 0 1000 1000" xml:space="preserve">
<metadata> Svg Vector Icons : http://www.onlinewebfonts.com/icon </metadata>
<g><g transform="translate(0.000000,512.000000) scale(0.100000,-0.100000)"><path d="M4909.1,5018.6c-47.9-3.8-203.2-15.3-345-26.8c-530.9-44.1-1031.1-132.2-1282.2-228.1c-197.4-74.7-1061.8-594.1-1372.2-826C1582,3696.2,1116.3,3240,909.3,2960.2C733,2722.6,665.9,2565.4,529.8,2069c-46-168.6-118.8-417.8-162.9-555.8c-337.3-1079-354.6-2033.4-53.7-2940c262.6-791.5,987-1822.6,1606-2290.3c605.6-456.1,1360.7-791.5,2121.6-939.1c567.3-111.2,1496.8-159.1,1954.9-99.6c517.5,67.1,873.9,184,1337.7,440.8c749.4,415.9,1197.8,766.6,1514.1,1188.3c226.1,302.8,513.6,822.2,653.5,1182.5c132.2,345,243.4,883.5,364.2,1780.5c42.2,300.9,46,916.1,11.5,1159.5c-95.8,640.1-245.3,1215.1-414,1600.3c-88.2,197.4-484.9,914.2-611.4,1100.1c-289.4,429.3-624.8,615.2-1565.8,864.4c-184,47.9-517.5,147.6-741.7,220.4c-563.4,185.9-791.5,230-1213.2,237.7C5146.7,5022.4,4957,5022.4,4909.1,5018.6z M5921,4091c99.7-61.3,143.7-184,134.2-364.1c-11.5-187.8-70.9-300.9-203.1-377.6c-78.6-46-109.2-53.7-245.3-53.7c-138,0-164.8,5.7-249.2,57.5c-57.5,36.4-115,93.9-151.4,151.4c-49.8,82.4-57.5,113.1-57.5,233.8c0,134.2,3.8,141.8,67.1,208.9c120.7,126.5,262.6,178.2,488.7,180.2C5825.2,4129.3,5871.2,4121.6,5921,4091z M3460.2,3209.4c168.7-70.9,325.8-201.2,377.6-316.2c57.5-126.5,49.8-304.7-23-448.5c-184-366.1-691.9-415.9-939.1-90.1c-86.2,113.1-113.1,199.3-113.1,360.3c0,241.5,101.6,442.7,268.3,529C3142,3301.3,3260.9,3291.8,3460.2,3209.4z M8027.3,2998.5c283.6-128.4,469.6-548.1,350.7-793.4c-72.8-153.3-220.4-224.2-469.6-226.2c-187.8-3.8-329.6,46-458.1,159.1c-103.5,92-149.5,170.6-149.5,256.8c0,65.2,210.8,431.2,304.7,530.9C7712.9,3038.8,7877.8,3067.5,8027.3,2998.5z M6014.9,1854.4c88.2-63.2,124.6-195.5,116.9-408.2c-7.6-210.8-57.5-325.8-166.7-391c-145.7-84.3-419.7-23-594.1,134.2c-210.8,189.7-199.3,400.6,30.7,576.9C5574.1,1898.5,5896.1,1944.4,6014.9,1854.4z M1965.3,1275.6c103.5-97.7,118.8-513.6,24.9-716.8c-70.9-155.2-139.9-195.5-333.5-195.5c-145.6,0-161,3.8-230,59.4c-115,93.9-166.7,216.6-168.6,389c0,164.8,38.3,256.8,147.6,358.4c118.8,113.1,247.2,162.9,402.5,155.2C1892.5,1319.7,1930.8,1308.2,1965.3,1275.6z M9054.5,401.6c63.2-40.2,105.4-151.4,120.7-312.4c30.7-333.5-153.3-542.4-479.1-540.5c-128.4,1.9-241.5,34.5-302.8,90.1c-99.7,88.2-139.9,300.9-84.3,437c61.3,143.7,266.4,310.5,442.7,356.5C8836,455.3,8998.9,438.1,9054.5,401.6z M4341.8-73.6c203.2-93.9,331.6-231.9,366.1-391c17.3-86.2-23-289.4-78.6-383.3c-70.9-122.7-161-168.7-333.5-168.7c-168.7,0-308.6,55.6-438.9,174.4C3726.6-725.3,3692.1-642.9,3694-455c1.9,136.1,11.5,176.3,57.5,266.4c76.7,147.5,143.7,184,333.5,172.5C4188.5-20,4261.3-37.2,4341.8-73.6z M6419.3-1076c184-92,276-251.1,276-479.1c-1.9-333.5-157.2-440.8-529-362.2c-157.1,32.6-287.5,105.4-339.2,187.8c-109.2,182.1,32.6,552,254.9,663.1C6193.1-1012.7,6298.6-1014.7,6419.3-1076z M2624.6-1677.8c187.8-84.3,260.6-203.2,256.8-427.4c-3.8-274.1-90.1-477.2-237.7-552c-310.5-159.1-858.6,222.3-858.6,596c0,205.1,130.3,358.4,348.8,414C2271.9-1612.6,2507.7-1626,2624.6-1677.8z M8337.7-1827.3c107.3-49.8,143.7-159.1,132.2-394.8c-11.5-220.4-57.5-366.1-155.2-494.5c-95.8-122.6-166.7-153.3-345-143.7c-126.5,5.8-161,15.3-230,63.2c-101.6,72.8-159.1,176.3-184,335.4c-53.7,327.7,113.1,594.1,414,667C8063.7-1771.7,8253.4-1788.9,8337.7-1827.3z M5288.5-3055.8c199.3-103.5,306.7-360.3,218.5-530.9c-49.8-99.7-184-222.3-312.4-285.6c-322-164.8-657.4,149.5-553.9,517.5C4711.7-3097.9,5060.5-2938.9,5288.5-3055.8z"/></g></g>
</svg>