<?xml version="1.0" encoding="UTF-8" standalone="no"?>
<!-- Generated by graphviz version 2.40.1 (20161225.0304)
 -->

<!-- Title: Pacman Pages: 1 -->

<svg
   xmlns:dc="http://purl.org/dc/elements/1.1/"
   xmlns:cc="http://creativecommons.org/ns#"
   xmlns:rdf="http://www.w3.org/1999/02/22-rdf-syntax-ns#"
   xmlns:svg="http://www.w3.org/2000/svg"
   xmlns="http://www.w3.org/2000/svg"
   xmlns:sodipodi="http://sodipodi.sourceforge.net/DTD/sodipodi-0.dtd"
   xmlns:inkscape="http://www.inkscape.org/namespaces/inkscape"
   width="1219.9189pt"
   height="481pt"
   viewBox="0 0 1219.9189 481"
   version="1.1"
   id="svg541"
   sodipodi:docname="PacmanGraph.svg"
   inkscape:version="0.92.5 (2060ec1f9f, 2020-04-08)">
  <metadata
     id="metadata547">
    <rdf:RDF>
      <cc:Work
         rdf:about="">
        <dc:format>image/svg+xml</dc:format>
        <dc:type
           rdf:resource="http://purl.org/dc/dcmitype/StillImage" />
        <dc:title></dc:title>
      </cc:Work>
    </rdf:RDF>
  </metadata>
  <defs
     id="defs545" />
  <sodipodi:namedview
     pagecolor="#ffffff"
     bordercolor="#666666"
     borderopacity="1"
     objecttolerance="10"
     gridtolerance="10"
     guidetolerance="10"
     inkscape:pageopacity="0"
     inkscape:pageshadow="2"
     inkscape:window-width="1920"
     inkscape:window-height="1017"
     id="namedview543"
     showgrid="false"
     fit-margin-top="0"
     fit-margin-left="0"
     fit-margin-right="0"
     fit-margin-bottom="0"
     inkscape:zoom="0.88986154"
     inkscape:cx="814.00002"
     inkscape:cy="320.66668"
     inkscape:window-x="-8"
     inkscape:window-y="-8"
     inkscape:window-maximized="1"
     inkscape:current-layer="svg541" />
  <g
     class="node"
     id="node1"
     transform="translate(0.5,480.5)">
    <title
       id="title6">4</title>
    <ellipse
       style="fill:#6495ed;stroke:#000000"
       id="ellipse8"
       ry="18"
       rx="96.676804"
       cy="-462"
       cx="194" />
    <text
       style="font-size:14px;font-family:Times, serif;text-anchor:middle;fill:#000000"
       id="text10"
       font-size="14.00"
       y="-457.79999"
       x="194">ghostmovesup(1,8)[8]</text>
  </g>
  <g
     class="node"
     id="node2"
     transform="translate(0.5,480.5)">
    <title
       id="title13">3</title>
    <ellipse
       style="fill:#6495ed;stroke:#000000"
       id="ellipse15"
       ry="18"
       rx="105.3412"
       cy="-373.20001"
       cx="290" />
    <text
       style="font-size:14px;font-family:Times, serif;text-anchor:middle;fill:#000000"
       id="text17"
       font-size="14.00"
       y="-369"
       x="290">ghostmovesright(1,8)[8]</text>
  </g>
  <g
     class="edge"
     id="edge1"
     transform="translate(0.5,480.5)">
    <title
       id="title20">4-&gt;3</title>
    <path
       style="fill:none;stroke:#6495ed"
       inkscape:connector-curvature="0"
       id="path22"
       d="m 202.8777,-443.8331 c 6,10.9663 14.7143,24.6936 25.1223,34.6331 5.2602,5.0235 11.3496,9.6294 17.6156,13.7467" />
    <polygon
       style="fill:#6495ed;stroke:#6495ed"
       id="polygon24"
       points="254.2081,-390.1485 243.8604,-392.4236 247.5377,-398.38 " />
    <text
       style="font-size:14px;font-family:Times, serif;text-anchor:middle;fill:#000000"
       id="text26"
       font-size="14.00"
       y="-413.39999"
       x="231.5">2</text>
  </g>
  <g
     class="node"
     id="node3"
     transform="translate(0.5,480.5)">
    <title
       id="title29">2</title>
    <ellipse
       style="fill:#6495ed;stroke:#000000"
       id="ellipse31"
       ry="18"
       rx="99.600899"
       cy="-106.8"
       cx="186" />
    <text
       style="font-size:14px;font-family:Times, serif;text-anchor:middle;fill:#000000"
       id="text33"
       font-size="14.00"
       y="-102.6"
       x="186">ghostmovesleft(1,8)[8]</text>
  </g>
  <g
     class="edge"
     id="edge2"
     transform="translate(0.5,480.5)">
    <title
       id="title36">4-&gt;2</title>
    <path
       style="fill:none;stroke:#6495ed"
       inkscape:connector-curvature="0"
       id="path38"
       d="M 116.1511,-451.3062 C 80.5383,-445.169 43.1514,-436.5733 29,-426 c -21.4479,16.0248 -29,26.0267 -29,52.8 0,0 0,0 0,177.6 0,26.7733 7.6372,36.6619 29,52.8 11.7275,8.8593 40.2948,16.5129 69.8954,22.4571" />
    <polygon
       style="fill:#6495ed;stroke:#6495ed"
       id="polygon40"
       points="108.9506,-118.3933 98.4672,-116.8608 99.7997,-123.7328 " />
    <text
       style="font-size:14px;font-family:Times, serif;text-anchor:middle;fill:#000000"
       id="text42"
       font-size="14.00"
       y="-280.20001"
       x="3.5">2</text>
  </g>
  <g
     class="node"
     id="node4"
     transform="translate(0.5,480.5)">
    <title
       id="title45">1</title>
    <ellipse
       style="fill:#6495ed;stroke:#000000"
       id="ellipse47"
       ry="18"
       rx="114.0929"
       cy="-195.60001"
       cx="271" />
    <text
       style="font-size:14px;font-family:Times, serif;text-anchor:middle;fill:#000000"
       id="text49"
       font-size="14.00"
       y="-191.39999"
       x="271">ghostmovesbottom(1,8)[8]</text>
  </g>
  <g
     class="edge"
     id="edge3"
     transform="translate(0.5,480.5)">
    <title
       id="title52">4-&gt;1</title>
    <path
       style="fill:none;stroke:#6495ed"
       inkscape:connector-curvature="0"
       id="path54"
       d="m 282.9334,-454.9713 c 68.1206,6.3116 152.2443,16.493 163.0666,28.9713 56.6162,65.279 54.3168,129.7353 -3,194.4 -9.7724,11.0251 -36.6527,18.8554 -66.3413,24.3321" />
    <polygon
       style="fill:#6495ed;stroke:#6495ed"
       id="polygon56"
       points="366.5034,-205.4996 375.7548,-210.6632 376.9556,-203.767 " />
    <text
       style="font-size:14px;font-family:Times, serif;text-anchor:middle;fill:#000000"
       id="text58"
       font-size="14.00"
       y="-324.60001"
       x="491.5">2</text>
  </g>
  <g
     class="node"
     id="node5"
     transform="translate(0.5,480.5)">
    <title
       id="title61">0</title>
    <ellipse
       style="fill:#6495ed;stroke:#000000"
       id="ellipse63"
       ry="18"
       rx="86.8629"
       cy="-284.39999"
       cx="155" />
    <text
       style="font-size:14px;font-family:Times, serif;text-anchor:middle;fill:#000000"
       id="text65"
       font-size="14.00"
       y="-280.20001"
       x="155">ghostmoves(1,8)[8]</text>
  </g>
  <g
     class="edge"
     id="edge4"
     transform="translate(0.5,480.5)">
    <title
       id="title68">4-&gt;0</title>
    <path
       style="fill:none;stroke:#6495ed"
       inkscape:connector-curvature="0"
       id="path70"
       d="m 165.9443,-444.769 c -7.1657,5.3594 -14.4015,11.7313 -19.9443,18.769 -10.4209,13.2313 -11.5964,18.3052 -15,34.8 -5.5698,26.9932 2.8742,57.6795 11.2412,79.2108" />
    <polygon
       style="fill:#6495ed;stroke:#6495ed"
       id="polygon72"
       points="146.1547,-302.4993 139.1066,-310.4097 145.5779,-313.0784 " />
    <text
       style="font-size:14px;font-family:Times, serif;text-anchor:middle;fill:#000000"
       id="text74"
       font-size="14.00"
       y="-369"
       x="134.5">2</text>
  </g>
  <g
     class="edge"
     id="edge5"
     transform="translate(0.5,480.5)">
    <title
       id="title77">3-&gt;4</title>
    <path
       style="fill:none;stroke:#6495ed"
       inkscape:connector-curvature="0"
       id="path79"
       d="M 271.8599,-391.0058 C 261.2299,-401.3411 247.4799,-414.5411 235,-426 c -4.0992,-3.7639 -8.4763,-7.6962 -12.7878,-11.5214" />
    <polygon
       style="fill:#6495ed;stroke:#6495ed"
       id="polygon81"
       points="214.5964,-444.2316 224.4133,-440.2467 219.7857,-434.9946 " />
    <text
       style="font-size:14px;font-family:Times, serif;text-anchor:middle;fill:#000000"
       id="text83"
       font-size="14.00"
       y="-413.39999"
       x="255.5">2</text>
  </g>
  <g
     class="edge"
     id="edge6"
     transform="translate(0.5,480.5)">
    <title
       id="title86">3-&gt;2</title>
    <path
       style="fill:none;stroke:#6495ed"
       inkscape:connector-curvature="0"
       id="path88"
       d="m 340.0057,-357.3166 c 10.8321,5.1472 21.5554,11.7553 29.9943,20.1166 63.9597,63.3711 115.7753,126.1929 57,194.4 -9.5319,11.0615 -78.8792,20.6627 -140.7511,27.1613" />
    <polygon
       style="fill:#6495ed;stroke:#6495ed"
       id="polygon90"
       points="275.9968,-114.5825 285.5854,-119.0889 286.3029,-112.1258 " />
    <text
       style="font-size:14px;font-family:Times, serif;text-anchor:middle;fill:#000000"
       id="text92"
       font-size="14.00"
       y="-235.8"
       x="451.5">2</text>
  </g>
  <g
     class="edge"
     id="edge7"
     transform="translate(0.5,480.5)">
    <title
       id="title95">3-&gt;1</title>
    <path
       style="fill:none;stroke:#6495ed"
       inkscape:connector-curvature="0"
       id="path97"
       d="m 288.0736,-355.1934 c -3.3144,30.9814 -10.1191,94.5874 -14.0637,131.4588" />
    <polygon
       style="fill:#6495ed;stroke:#6495ed"
       id="polygon99"
       points="272.9315,-213.6543 270.5152,-223.9699 277.4755,-223.2252 " />
    <text
       style="font-size:14px;font-family:Times, serif;text-anchor:middle;fill:#000000"
       id="text101"
       font-size="14.00"
       y="-280.20001"
       x="286.5">2</text>
  </g>
  <g
     class="edge"
     id="edge8"
     transform="translate(0.5,480.5)">
    <title
       id="title104">3-&gt;0</title>
    <path
       style="fill:none;stroke:#6495ed"
       inkscape:connector-curvature="0"
       id="path106"
       d="M 269.3063,-355.2996 C 256.4215,-344.5639 239.2582,-330.986 223,-320.4 c -7.8097,5.085 -16.413,10.0721 -24.7973,14.637" />
    <polygon
       style="fill:#6495ed;stroke:#6495ed"
       id="polygon108"
       points="189.2386,-300.9906 196.4208,-308.7795 199.7104,-302.6006 " />
    <text
       style="font-size:14px;font-family:Times, serif;text-anchor:middle;fill:#000000"
       id="text110"
       font-size="14.00"
       y="-324.60001"
       x="249.5">2</text>
  </g>
  <g
     class="edge"
     id="edge9"
     transform="translate(0.5,480.5)">
    <title
       id="title113">2-&gt;4</title>
    <path
       style="fill:none;stroke:#6495ed"
       inkscape:connector-curvature="0"
       id="path115"
       d="M 121.6116,-120.7076 C 83.6557,-133.1123 43,-155.7097 43,-195.6 c 0,-177.6 0,-177.6 0,-177.6 0,-38.1076 36.1758,-60.1848 73.1139,-72.7947" />
    <polygon
       style="fill:#6495ed;stroke:#6495ed"
       id="polygon117"
       points="126.0095,-449.1531 117.5472,-442.7781 115.4187,-449.4467 " />
    <text
       style="font-size:14px;font-family:Times, serif;text-anchor:middle;fill:#000000"
       id="text119"
       font-size="14.00"
       y="-280.20001"
       x="46.5">2</text>
  </g>
  <g
     class="edge"
     id="edge10"
     transform="translate(0.5,480.5)">
    <title
       id="title122">2-&gt;3</title>
    <path
       style="fill:none;stroke:#6495ed"
       inkscape:connector-curvature="0"
       id="path124"
       d="M 251.6688,-120.4379 C 306.0341,-133.2178 377.0123,-153.8728 394,-177.6 c 41.1005,-57.4063 -30.2224,-133.0621 -73.8685,-171.2754" />
    <polygon
       style="fill:#6495ed;stroke:#6495ed"
       id="polygon126"
       points="312.3372,-355.5621 322.2059,-351.7073 317.648,-346.3945 " />
    <text
       style="font-size:14px;font-family:Times, serif;text-anchor:middle;fill:#000000"
       id="text128"
       font-size="14.00"
       y="-235.8"
       x="408.5">2</text>
  </g>
  <g
     class="edge"
     id="edge11"
     transform="translate(0.5,480.5)">
    <title
       id="title131">2-&gt;1</title>
    <path
       style="fill:none;stroke:#6495ed"
       inkscape:connector-curvature="0"
       id="path133"
       d="m 193.1911,-124.859 c 4.9743,-10.9257 12.3902,-24.6482 21.8089,-34.741 4.3469,-4.6581 9.4184,-8.9793 14.7008,-12.8928" />
    <polygon
       style="fill:#6495ed;stroke:#6495ed"
       id="polygon135"
       points="238.1015,-178.2967 231.8636,-169.7329 227.8846,-175.4921 " />
    <text
       style="font-size:14px;font-family:Times, serif;text-anchor:middle;fill:#000000"
       id="text137"
       font-size="14.00"
       y="-147"
       x="218.5">2</text>
  </g>
  <g
     class="edge"
     id="edge12"
     transform="translate(0.5,480.5)">
    <title
       id="title140">2-&gt;0</title>
    <path
       style="fill:none;stroke:#6495ed"
       inkscape:connector-curvature="0"
       id="path142"
       d="M 170.6134,-124.6015 C 159.9905,-138.1302 146.7768,-157.7418 141,-177.6 c -7.6207,-26.1968 -2.0083,-57.2216 4.2292,-79.0632" />
    <polygon
       style="fill:#6495ed;stroke:#6495ed"
       id="polygon144"
       points="148.1896,-266.2937 148.5967,-255.7067 141.9057,-257.7636 " />
    <text
       style="font-size:14px;font-family:Times, serif;text-anchor:middle;fill:#000000"
       id="text146"
       font-size="14.00"
       y="-191.39999"
       x="144.5">2</text>
  </g>
  <g
     class="edge"
     id="edge13"
     transform="translate(0.5,480.5)">
    <title
       id="title149">1-&gt;4</title>
    <path
       style="fill:none;stroke:#6495ed"
       inkscape:connector-curvature="0"
       id="path151"
       d="m 343.5348,-209.5423 c 22.5234,-5.8296 43.3351,-13.3016 50.4652,-22.0577 58.793,-72.2009 31.3138,-129.9216 10,-159.6 -16.2686,-22.6531 -81.4605,-42.3551 -134.9462,-55.1833" />
    <polygon
       style="fill:#6495ed;stroke:#6495ed"
       id="polygon153"
       points="259.2175,-448.6978 269.7534,-449.8142 268.15,-443.0003 " />
    <text
       style="font-size:14px;font-family:Times, serif;text-anchor:middle;fill:#000000"
       id="text155"
       font-size="14.00"
       y="-324.60001"
       x="433.5">2</text>
  </g>
  <g
     class="edge"
     id="edge14"
     transform="translate(0.5,480.5)">
    <title
       id="title158">1-&gt;3</title>
    <path
       style="fill:none;stroke:#6495ed"
       inkscape:connector-curvature="0"
       id="path160"
       d="m 282.235,-213.7155 c 2.9788,-5.5549 5.8852,-11.8083 7.765,-17.8845 13.9332,-45.0373 16.3671,-58.8886 10,-105.6 -0.3652,-2.6793 -0.8767,-5.4407 -1.477,-8.1863" />
    <polygon
       style="fill:#6495ed;stroke:#6495ed"
       id="polygon162"
       points="296.0614,-355.0866 301.9136,-346.2547 295.1287,-344.5329 " />
    <text
       style="font-size:14px;font-family:Times, serif;text-anchor:middle;fill:#000000"
       id="text164"
       font-size="14.00"
       y="-280.20001"
       x="307.5">2</text>
  </g>
  <g
     class="edge"
     id="edge15"
     transform="translate(0.5,480.5)">
    <title
       id="title167">1-&gt;2</title>
    <path
       style="fill:none;stroke:#6495ed"
       inkscape:connector-curvature="0"
       id="path169"
       d="m 254.3833,-177.3604 c -9.41,10.2443 -21.451,23.2124 -32.3833,34.5604 -3.4226,3.5527 -7.064,7.2675 -10.666,10.9048" />
    <polygon
       style="fill:#6495ed;stroke:#6495ed"
       id="polygon171"
       points="204.0781,-124.6148 208.6582,-134.1685 213.6163,-129.2272 " />
    <text
       style="font-size:14px;font-family:Times, serif;text-anchor:middle;fill:#000000"
       id="text173"
       font-size="14.00"
       y="-147"
       x="240.5">2</text>
  </g>
  <g
     class="edge"
     id="edge16"
     transform="translate(0.5,480.5)">
    <title
       id="title176">1-&gt;0</title>
    <path
       style="fill:none;stroke:#6495ed"
       inkscape:connector-curvature="0"
       id="path178"
       d="M 249.9175,-213.3278 C 237.3363,-223.7547 220.9482,-237.0732 206,-248.4 c -5.5716,-4.2218 -11.5731,-8.6015 -17.4342,-12.7915" />
    <polygon
       style="fill:#6495ed;stroke:#6495ed"
       id="polygon180"
       points="180.1454,-267.1542 190.3292,-264.2314 186.2838,-258.5187 " />
    <text
       style="font-size:14px;font-family:Times, serif;text-anchor:middle;fill:#000000"
       id="text182"
       font-size="14.00"
       y="-235.8"
       x="229.5">2</text>
  </g>
  <g
     class="edge"
     id="edge17"
     transform="translate(0.5,480.5)">
    <title
       id="title185">0-&gt;4</title>
    <path
       style="fill:none;stroke:#6495ed"
       inkscape:connector-curvature="0"
       id="path187"
       d="m 156.2336,-302.7525 c 1.7102,-21.4469 5.4546,-57.8937 12.7664,-88.4475 3.4711,-14.5048 8.8332,-30.1864 13.7027,-43.0956" />
    <polygon
       style="fill:#6495ed;stroke:#6495ed"
       id="polygon189"
       points="186.4567,-443.9787 186.1052,-433.3897 179.5786,-435.9201 " />
    <text
       style="font-size:14px;font-family:Times, serif;text-anchor:middle;fill:#000000"
       id="text191"
       font-size="14.00"
       y="-369"
       x="172.5">6</text>
  </g>
  <g
     class="edge"
     id="edge18"
     transform="translate(0.5,480.5)">
    <title
       id="title194">0-&gt;3</title>
    <path
       style="fill:none;stroke:#6495ed"
       inkscape:connector-curvature="0"
       id="path196"
       d="m 172.5847,-302.2008 c 11.4316,-10.9613 27.0252,-24.8149 42.4153,-34.9992 8.0455,-5.3241 16.9986,-10.3207 25.8379,-14.7983" />
    <polygon
       style="fill:#6495ed;stroke:#6495ed"
       id="polygon198"
       points="249.9654,-356.4686 242.5241,-348.9269 239.4452,-355.2134 " />
    <text
       style="font-size:14px;font-family:Times, serif;text-anchor:middle;fill:#000000"
       id="text200"
       font-size="14.00"
       y="-324.60001"
       x="218.5">6</text>
  </g>
  <g
     class="edge"
     id="edge19"
     transform="translate(0.5,480.5)">
    <title
       id="title203">0-&gt;2</title>
    <path
       style="fill:none;stroke:#6495ed"
       inkscape:connector-curvature="0"
       id="path205"
       d="m 144.4877,-266.4715 c -3.0265,5.6536 -6.1405,12.0083 -8.4877,18.0715 -11.4511,29.5808 -16.499,39.9793 -9,70.8 4.1167,16.9195 7.2716,21.0843 18,34.8 3.0494,3.8985 6.5619,7.7052 10.2216,11.2953" />
    <polygon
       style="fill:#6495ed;stroke:#6495ed"
       id="polygon207"
       points="162.8388,-124.4799 153.1149,-128.6864 157.8605,-133.8322 " />
    <text
       style="font-size:14px;font-family:Times, serif;text-anchor:middle;fill:#000000"
       id="text209"
       font-size="14.00"
       y="-191.39999"
       x="130.5">6</text>
  </g>
  <g
     class="edge"
     id="edge20"
     transform="translate(0.5,480.5)">
    <title
       id="title212">0-&gt;1</title>
    <path
       style="fill:none;stroke:#6495ed"
       inkscape:connector-curvature="0"
       id="path214"
       d="m 166.902,-266.0814 c 7.8422,11.0234 18.8932,24.7574 31.098,34.4814 6.6726,5.3163 14.2582,10.1274 21.955,14.3758" />
    <polygon
       style="fill:#6495ed;stroke:#6495ed"
       id="polygon216"
       points="228.9934,-212.4988 218.5098,-214.0303 221.753,-220.2337 " />
    <text
       style="font-size:14px;font-family:Times, serif;text-anchor:middle;fill:#000000"
       id="text218"
       font-size="14.00"
       y="-235.8"
       x="201.5">6</text>
  </g>
  <g
     class="node"
     id="node6"
     transform="translate(0.5,480.5)">
    <title
       id="title221">11</title>
    <ellipse
       style="fill:#00fa9a;stroke:#000000"
       id="ellipse223"
       ry="18"
       rx="110.5428"
       cy="-462"
       cx="768" />
    <text
       style="font-size:14px;font-family:Times, serif;text-anchor:middle;fill:#000000"
       id="text225"
       font-size="14.00"
       y="-457.79999"
       x="768">pacmanmovesup(1,8)[10]</text>
  </g>
  <g
     class="node"
     id="node7"
     transform="translate(0.5,480.5)">
    <title
       id="title228">10</title>
    <ellipse
       style="fill:#00fa9a;stroke:#000000"
       id="ellipse230"
       ry="18"
       rx="119.2071"
       cy="-373.20001"
       cx="1080" />
    <text
       style="font-size:14px;font-family:Times, serif;text-anchor:middle;fill:#000000"
       id="text232"
       font-size="14.00"
       y="-369"
       x="1080">pacmanmovesright(1,8)[10]</text>
  </g>
  <g
     class="edge"
     id="edge21"
     transform="translate(0.5,480.5)">
    <title
       id="title235">11-&gt;10</title>
    <path
       style="fill:none;stroke:#00fa9a"
       inkscape:connector-curvature="0"
       id="path237"
       d="m 848.6314,-449.6409 c 12.8302,1.9196 25.9594,3.8564 38.3686,5.6409 58.6067,8.4279 78.0455,-6.3862 132,18 14.276,6.4524 27.7219,17.346 38.3378,27.568" />
    <polygon
       style="fill:#00fa9a;stroke:#00fa9a"
       id="polygon239"
       points="1064.5391,-391.1806 1055.0091,-395.8099 1059.9761,-400.7424 " />
    <text
       style="font-size:14px;font-family:Times, serif;text-anchor:middle;fill:#000000"
       id="text241"
       font-size="14.00"
       y="-413.39999"
       x="1048.5">2</text>
  </g>
  <g
     class="node"
     id="node8"
     transform="translate(0.5,480.5)">
    <title
       id="title244">9</title>
    <ellipse
       style="fill:#00fa9a;stroke:#000000"
       id="ellipse246"
       ry="18"
       rx="113.9671"
       cy="-18"
       cx="882" />
    <text
       style="font-size:14px;font-family:Times, serif;text-anchor:middle;fill:#000000"
       id="text248"
       font-size="14.00"
       y="-13.8"
       x="882">pacmanmovesleft(1,8)[10]</text>
  </g>
  <g
     class="edge"
     id="edge22"
     transform="translate(0.5,480.5)">
    <title
       id="title251">11-&gt;9</title>
    <path
       style="fill:none;stroke:#00fa9a"
       inkscape:connector-curvature="0"
       id="path253"
       d="M 667.8229,-454.3748 C 620.5192,-448.9946 570.4337,-440.1494 552,-426 c -20.4479,15.6954 -24,27.0228 -24,52.8 0,0 0,0 0,266.4 0,25.7772 3.117,37.6883 24,52.8 17.3364,12.5453 125.637,22.6514 213.5151,28.9259" />
    <polygon
       style="fill:#00fa9a;stroke:#00fa9a"
       id="polygon255"
       points="775.5781,-24.3658 765.357,-21.5767 765.8486,-28.5594 " />
    <text
       style="font-size:14px;font-family:Times, serif;text-anchor:middle;fill:#000000"
       id="text257"
       font-size="14.00"
       y="-235.8"
       x="531.5">2</text>
  </g>
  <g
     class="node"
     id="node9"
     transform="translate(0.5,480.5)">
    <title
       id="title260">8</title>
    <ellipse
       style="fill:#00fa9a;stroke:#000000"
       id="ellipse262"
       ry="18"
       rx="128.45911"
       cy="-106.8"
       cx="882" />
    <text
       style="font-size:14px;font-family:Times, serif;text-anchor:middle;fill:#000000"
       id="text264"
       font-size="14.00"
       y="-102.6"
       x="882">pacmanmovesbottom(1,8)[10]</text>
  </g>
  <g
     class="edge"
     id="edge23"
     transform="translate(0.5,480.5)">
    <title
       id="title267">11-&gt;8</title>
    <path
       style="fill:none;stroke:#00fa9a"
       inkscape:connector-curvature="0"
       id="path269"
       d="M 700.1309,-447.7168 C 675.2457,-441.4605 650.7714,-433.7793 641,-426 c -20.9459,16.6757 -29,26.0267 -29,52.8 0,0 0,0 0,177.6 0,25.7772 3.3974,37.3082 24,52.8 19.0826,14.3489 67.6121,23.0191 116.5745,28.2391" />
    <polygon
       style="fill:#00fa9a;stroke:#00fa9a"
       id="polygon271"
       points="762.6907,-113.5304 752.3875,-111.0619 753.0969,-118.0259 " />
    <text
       style="font-size:14px;font-family:Times, serif;text-anchor:middle;fill:#000000"
       id="text273"
       font-size="14.00"
       y="-280.20001"
       x="615.5">2</text>
  </g>
  <g
     class="node"
     id="node10"
     transform="translate(0.5,480.5)">
    <title
       id="title276">7</title>
    <ellipse
       style="fill:#00fa9a;stroke:#000000"
       id="ellipse278"
       ry="18"
       rx="100.7291"
       cy="-195.60001"
       cx="941" />
    <text
       style="font-size:14px;font-family:Times, serif;text-anchor:middle;fill:#000000"
       id="text280"
       font-size="14.00"
       y="-191.39999"
       x="941">pacmanmoves(1,8)[10]</text>
  </g>
  <g
     class="edge"
     id="edge24"
     transform="translate(0.5,480.5)">
    <title
       id="title283">11-&gt;7</title>
    <path
       style="fill:none;stroke:#00fa9a"
       inkscape:connector-curvature="0"
       id="path285"
       d="m 786.205,-443.8761 c 22.5512,23.1782 61.1262,65.2877 86.795,106.6761 26.9816,43.5053 22.3745,60.1847 46,105.6 1.555,2.9891 3.2614,6.0663 5.0147,9.1035" />
    <polygon
       style="fill:#00fa9a;stroke:#00fa9a"
       id="polygon287"
       points="929.3106,-213.6332 921.1768,-220.4223 927.1859,-224.0128 " />
    <text
       style="font-size:14px;font-family:Times, serif;text-anchor:middle;fill:#000000"
       id="text289"
       font-size="14.00"
       y="-324.60001"
       x="886.5">2</text>
  </g>
  <g
     class="node"
     id="node11"
     transform="translate(0.5,480.5)">
    <title
       id="title292">5</title>
    <ellipse
       style="fill:#00fa9a;stroke:#000000"
       id="ellipse294"
       ry="18"
       rx="91.415497"
       cy="-284.39999"
       cx="776" />
    <text
       style="font-size:14px;font-family:Times, serif;text-anchor:middle;fill:#000000"
       id="text296"
       font-size="14.00"
       y="-280.20001"
       x="776">pacmandies(1,7)[10]</text>
  </g>
  <g
     class="edge"
     id="edge25"
     transform="translate(0.5,480.5)">
    <title
       id="title299">11-&gt;5</title>
    <path
       style="fill:none;stroke:#00fa9a"
       inkscape:connector-curvature="0"
       id="path301"
       d="m 764.9341,-443.8223 c -3.1557,21.2826 -7.1869,57.5754 -3.9341,88.6223 1.4979,14.2973 4.6531,29.9569 7.685,42.9052" />
    <polygon
       style="fill:#00fa9a;stroke:#00fa9a"
       id="polygon303"
       points="771.056,-302.5696 765.2869,-311.456 772.0877,-313.1141 " />
    <text
       style="font-size:14px;font-family:Times, serif;text-anchor:middle;fill:#000000"
       id="text305"
       font-size="14.00"
       y="-369"
       x="764.5">1</text>
  </g>
  <g
     class="edge"
     id="edge26"
     transform="translate(0.5,480.5)">
    <title
       id="title308">10-&gt;11</title>
    <path
       style="fill:none;stroke:#00fa9a"
       inkscape:connector-curvature="0"
       id="path310"
       d="M 1042.228,-390.3018 C 1015.9502,-401.6741 979.8699,-416.256 947,-426 c -28.9531,-8.583 -61.1463,-15.7634 -90.1585,-21.3965" />
    <polygon
       style="fill:#00fa9a;stroke:#00fa9a"
       id="polygon312"
       points="846.7228,-449.3242 857.2012,-450.8908 855.8911,-444.0145 " />
    <text
       style="font-size:14px;font-family:Times, serif;text-anchor:middle;fill:#000000"
       id="text314"
       font-size="14.00"
       y="-413.39999"
       x="999.5">2</text>
  </g>
  <g
     class="edge"
     id="edge27"
     transform="translate(0.5,480.5)">
    <title
       id="title317">10-&gt;9</title>
    <path
       style="fill:none;stroke:#00fa9a"
       inkscape:connector-curvature="0"
       id="path319"
       d="m 1146.8401,-358.2066 c 13.2842,5.1264 26.427,11.95 37.1599,21.0066 20.462,17.266 29,26.0267 29,52.8 0,0 0,0 0,177.6 0,26.7733 -6.8066,37.8246 -29,52.8 -15.7928,10.6565 -109.7677,20.7396 -188.7503,27.5088" />
    <polygon
       style="fill:#00fa9a;stroke:#00fa9a"
       id="polygon321"
       points="985.205,-25.6411 994.8742,-29.9721 995.4646,-22.997 " />
    <text
       style="font-size:14px;font-family:Times, serif;text-anchor:middle;fill:#000000"
       id="text323"
       font-size="14.00"
       y="-191.39999"
       x="1216.5">2</text>
  </g>
  <g
     class="edge"
     id="edge28"
     transform="translate(0.5,480.5)">
    <title
       id="title326">10-&gt;8</title>
    <path
       style="fill:none;stroke:#00fa9a"
       inkscape:connector-curvature="0"
       id="path328"
       d="m 1048.9847,-355.5373 c -18.2524,12.2929 -39.7142,30.5192 -49.9847,53.1373 -6.6153,14.5684 -6.0665,21.1947 0,36 12.488,30.4772 39.512,22.3228 52,52.8 6.0665,14.8053 8.8623,22.6786 0,36 -17.7277,26.6473 -47.6246,43.2848 -77.3871,53.6646" />
    <polygon
       style="fill:#00fa9a;stroke:#00fa9a"
       id="polygon330"
       points="963.97,-120.7805 972.3859,-127.2166 974.5626,-120.5636 " />
    <text
       style="font-size:14px;font-family:Times, serif;text-anchor:middle;fill:#000000"
       id="text332"
       font-size="14.00"
       y="-235.8"
       x="1041.5">2</text>
  </g>
  <g
     class="edge"
     id="edge29"
     transform="translate(0.5,480.5)">
    <title
       id="title335">10-&gt;7</title>
    <path
       style="fill:none;stroke:#00fa9a"
       inkscape:connector-curvature="0"
       id="path337"
       d="m 1065.907,-355.1934 c -24.6641,31.5133 -75.7464,96.7809 -104.3547,133.3338" />
    <polygon
       style="fill:#00fa9a;stroke:#00fa9a"
       id="polygon339"
       points="955.1303,-213.6543 958.5375,-223.6863 964.0499,-219.372 " />
    <text
       style="font-size:14px;font-family:Times, serif;text-anchor:middle;fill:#000000"
       id="text341"
       font-size="14.00"
       y="-280.20001"
       x="1028.5">2</text>
  </g>
  <g
     class="edge"
     id="edge30"
     transform="translate(0.5,480.5)">
    <title
       id="title344">10-&gt;5</title>
    <path
       style="fill:none;stroke:#00fa9a"
       inkscape:connector-curvature="0"
       id="path346"
       d="m 978.1669,-363.7647 c -36.1568,5.3454 -76.6698,13.6631 -112.1669,26.5647 -19.968,7.2575 -40.5296,18.947 -56.95,29.4845" />
    <polygon
       style="fill:#00fa9a;stroke:#00fa9a"
       id="polygon348"
       points="800.3837,-302.0153 806.8152,-310.4348 810.6619,-304.5864 " />
    <text
       style="font-size:14px;font-family:Times, serif;text-anchor:middle;fill:#000000"
       id="text350"
       font-size="14.00"
       y="-324.60001"
       x="869.5">1</text>
  </g>
  <g
     class="edge"
     id="edge31"
     transform="translate(0.5,480.5)">
    <title
       id="title353">9-&gt;11</title>
    <path
       style="fill:none;stroke:#00fa9a"
       inkscape:connector-curvature="0"
       id="path355"
       d="M 782.4494,-26.8123 C 689.8235,-37.8481 566,-61.1399 566,-106.8 c 0,-266.4 0,-266.4 0,-266.4 0,-33.5661 24.6463,-36.5198 54,-52.8 16.9355,-9.3928 36.2933,-16.3577 55.3017,-21.5152" />
    <polygon
       style="fill:#00fa9a;stroke:#00fa9a"
       id="polygon357"
       points="685.1952,-450.0507 676.3772,-444.1776 674.6394,-450.9585 " />
    <text
       style="font-size:14px;font-family:Times, serif;text-anchor:middle;fill:#000000"
       id="text359"
       font-size="14.00"
       y="-235.8"
       x="569.5">2</text>
  </g>
  <g
     class="edge"
     id="edge32"
     transform="translate(0.5,480.5)">
    <title
       id="title362">9-&gt;10</title>
    <path
       style="fill:none;stroke:#00fa9a"
       inkscape:connector-curvature="0"
       id="path364"
       d="M 974.3134,-28.6114 C 1058.5522,-40.9463 1170,-65.138 1170,-106.8 c 0,-177.6 0,-177.6 0,-177.6 0,-28.5143 -23.1745,-50.9556 -46.0041,-66.1449" />
    <polygon
       style="fill:#00fa9a;stroke:#00fa9a"
       id="polygon366"
       points="1115.3121,-356.0088 1125.64,-353.6456 1121.912,-347.7208 " />
    <text
       style="font-size:14px;font-family:Times, serif;text-anchor:middle;fill:#000000"
       id="text368"
       font-size="14.00"
       y="-191.39999"
       x="1173.5">2</text>
  </g>
  <g
     class="edge"
     id="edge33"
     transform="translate(0.5,480.5)">
    <title
       id="title371">9-&gt;8</title>
    <path
       style="fill:none;stroke:#00fa9a"
       inkscape:connector-curvature="0"
       id="path373"
       d="M 874.7308,-36.0275 C 872.7937,-41.6852 870.9709,-48.0172 870,-54 c -1.196,-7.3703 -1.196,-9.4297 0,-16.8 0.4399,-2.7109 1.0548,-5.4936 1.7759,-8.2527" />
    <polygon
       style="fill:#00fa9a;stroke:#00fa9a"
       id="polygon375"
       points="874.7308,-88.7725 875.1708,-78.1868 868.4734,-80.2229 " />
    <text
       style="font-size:14px;font-family:Times, serif;text-anchor:middle;fill:#000000"
       id="text377"
       font-size="14.00"
       y="-58.200001"
       x="873.5">2</text>
  </g>
  <g
     class="edge"
     id="edge34"
     transform="translate(0.5,480.5)">
    <title
       id="title380">9-&gt;7</title>
    <path
       style="fill:none;stroke:#00fa9a"
       inkscape:connector-curvature="0"
       id="path382"
       d="m 942.4127,-33.348 c 28.4728,-10.595 59.8098,-27.8962 76.5873,-55.452 18.3119,-30.076 -13.3092,-62.4455 -41.6085,-83.5668" />
    <polygon
       style="fill:#00fa9a;stroke:#00fa9a"
       id="polygon384"
       points="969.1593,-178.2798 979.3231,-175.2886 975.2394,-169.6032 " />
    <text
       style="font-size:14px;font-family:Times, serif;text-anchor:middle;fill:#000000"
       id="text386"
       font-size="14.00"
       y="-102.6"
       x="1028.5">2</text>
  </g>
  <g
     class="edge"
     id="edge35"
     transform="translate(0.5,480.5)">
    <title
       id="title389">9-&gt;5</title>
    <path
       style="fill:none;stroke:#00fa9a"
       inkscape:connector-curvature="0"
       id="path391"
       d="M 821.5873,-33.348 C 793.1145,-43.943 761.7775,-61.2442 745,-88.8 c -32.2933,-53.0395 -3.591,-128.5966 16.1154,-168.4994" />
    <polygon
       style="fill:#00fa9a;stroke:#00fa9a"
       id="polygon393"
       points="765.7672,-266.4098 764.3368,-255.912 758.1025,-259.0953 " />
    <text
       style="font-size:14px;font-family:Times, serif;text-anchor:middle;fill:#000000"
       id="text395"
       font-size="14.00"
       y="-147"
       x="734.5">1</text>
  </g>
  <g
     class="edge"
     id="edge36"
     transform="translate(0.5,480.5)">
    <title
       id="title398">8-&gt;11</title>
    <path
       style="fill:none;stroke:#00fa9a"
       inkscape:connector-curvature="0"
       id="path400"
       d="m 785.2195,-118.7343 c -31.98,-5.6961 -62.4151,-13.5998 -74.2195,-24.0657 -43.4126,-38.4898 -32.5401,-66.3582 -42,-123.6 -10.9907,-66.5046 40.6084,-134.6076 73.456,-170.2675" />
    <polygon
       style="fill:#00fa9a;stroke:#00fa9a"
       id="polygon402"
       points="749.5519,-444.1869 745.2341,-434.5118 740.143,-439.3161 " />
    <text
       style="font-size:14px;font-family:Times, serif;text-anchor:middle;fill:#000000"
       id="text404"
       font-size="14.00"
       y="-280.20001"
       x="672.5">2</text>
  </g>
  <g
     class="edge"
     id="edge37"
     transform="translate(0.5,480.5)">
    <title
       id="title407">8-&gt;10</title>
    <path
       style="fill:none;stroke:#00fa9a"
       inkscape:connector-curvature="0"
       id="path409"
       d="m 964.1607,-120.7182 c 30.9028,-6.2545 61.733,-14.0331 74.8393,-22.0818 17.1563,-10.5358 21.2297,-16.2268 29,-34.8 23.2844,-55.6565 20.069,-128.06 15.8937,-167.3046" />
    <polygon
       style="fill:#00fa9a;stroke:#00fa9a"
       id="polygon411"
       points="1082.7118,-355.0529 1087.3452,-345.5249 1080.3922,-344.7151 " />
    <text
       style="font-size:14px;font-family:Times, serif;text-anchor:middle;fill:#000000"
       id="text413"
       font-size="14.00"
       y="-235.8"
       x="1088.5">2</text>
  </g>
  <g
     class="edge"
     id="edge38"
     transform="translate(0.5,480.5)">
    <title
       id="title416">8-&gt;9</title>
    <path
       style="fill:none;stroke:#00fa9a"
       inkscape:connector-curvature="0"
       id="path418"
       d="m 882,-88.4006 c 0,12.1057 0,28.193 0,41.9332" />
    <polygon
       style="fill:#00fa9a;stroke:#00fa9a"
       id="polygon420"
       points="882,-36.072 878.5001,-46.0721 885.5001,-46.072 " />
    <text
       style="font-size:14px;font-family:Times, serif;text-anchor:middle;fill:#000000"
       id="text422"
       font-size="14.00"
       y="-58.200001"
       x="885.5">2</text>
  </g>
  <g
     class="edge"
     id="edge39"
     transform="translate(0.5,480.5)">
    <title
       id="title425">8-&gt;7</title>
    <path
       style="fill:none;stroke:#00fa9a"
       inkscape:connector-curvature="0"
       id="path427"
       d="m 893.9218,-124.7433 c 8.4726,-12.752 19.9903,-30.0872 29.5126,-44.419" />
    <polygon
       style="fill:#00fa9a;stroke:#00fa9a"
       id="polygon429"
       points="929.0605,-177.63 926.4416,-167.3639 920.6112,-171.2377 " />
    <text
       style="font-size:14px;font-family:Times, serif;text-anchor:middle;fill:#000000"
       id="text431"
       font-size="14.00"
       y="-147"
       x="920.5">2</text>
  </g>
  <g
     class="edge"
     id="edge40"
     transform="translate(0.5,480.5)">
    <title
       id="title434">8-&gt;5</title>
    <path
       style="fill:none;stroke:#00fa9a"
       inkscape:connector-curvature="0"
       id="path436"
       d="M 865.0657,-124.7134 C 852.6569,-138.4533 835.961,-158.2809 824,-177.6 c -15.7754,-25.4801 -29.2996,-57.0312 -37.934,-79.2113" />
    <polygon
       style="fill:#00fa9a;stroke:#00fa9a"
       id="polygon438"
       points="782.4525,-266.2873 789.2859,-258.1907 782.7454,-255.6965 " />
    <text
       style="font-size:14px;font-family:Times, serif;text-anchor:middle;fill:#000000"
       id="text440"
       font-size="14.00"
       y="-191.39999"
       x="827.5">1</text>
  </g>
  <g
     class="edge"
     id="edge41"
     transform="translate(0.5,480.5)">
    <title
       id="title443">7-&gt;11</title>
    <path
       style="fill:none;stroke:#00fa9a"
       inkscape:connector-curvature="0"
       id="path445"
       d="M 937.3099,-213.7366 C 932.6446,-235.2898 923.7793,-272.1419 912,-302.4 c -16.4311,-42.2074 -21.6792,-53.4535 -50,-88.8 -15.1088,-18.8569 -36.3202,-35.4016 -54.7709,-47.7458" />
    <polygon
       style="fill:#00fa9a;stroke:#00fa9a"
       id="polygon447"
       points="798.7059,-444.4871 808.9976,-441.9707 805.182,-436.102 " />
    <text
       style="font-size:14px;font-family:Times, serif;text-anchor:middle;fill:#000000"
       id="text449"
       font-size="14.00"
       y="-324.60001"
       x="908.5">6</text>
  </g>
  <g
     class="edge"
     id="edge42"
     transform="translate(0.5,480.5)">
    <title
       id="title452">7-&gt;10</title>
    <path
       style="fill:none;stroke:#00fa9a"
       inkscape:connector-curvature="0"
       id="path454"
       d="m 972.3331,-212.8144 c 20.4466,-12.5735 46.4428,-31.2819 63.6669,-53.5856 18.2821,-23.6737 30.1971,-56.0164 36.9582,-78.8896" />
    <polygon
       style="fill:#00fa9a;stroke:#00fa9a"
       id="polygon456"
       points="1075.7064,-355.0675 1076.37,-344.4935 1069.6311,-346.3876 " />
    <text
       style="font-size:14px;font-family:Times, serif;text-anchor:middle;fill:#000000"
       id="text458"
       font-size="14.00"
       y="-280.20001"
       x="1060.5">6</text>
  </g>
  <g
     class="edge"
     id="edge43"
     transform="translate(0.5,480.5)">
    <title
       id="title461">7-&gt;9</title>
    <path
       style="fill:none;stroke:#00fa9a"
       inkscape:connector-curvature="0"
       id="path463"
       d="m 986.2073,-179.2911 c 10.5631,5.2038 21.2196,11.7308 29.7927,19.6911 23.9616,22.2487 30.5932,39.8654 20,70.8 -6.342,18.5202 -10.7727,23.8505 -27,34.8 -12.1938,8.2278 -26.2569,14.5929 -40.4853,19.5121" />
    <polygon
       style="fill:#00fa9a;stroke:#00fa9a"
       id="polygon465"
       points="958.6587,-31.3082 967.1011,-37.7096 969.2504,-31.0477 " />
    <text
       style="font-size:14px;font-family:Times, serif;text-anchor:middle;fill:#000000"
       id="text467"
       font-size="14.00"
       y="-102.6"
       x="1044.5">6</text>
  </g>
  <g
     class="edge"
     id="edge44"
     transform="translate(0.5,480.5)">
    <title
       id="title470">7-&gt;8</title>
    <path
       style="fill:none;stroke:#00fa9a"
       inkscape:connector-curvature="0"
       id="path472"
       d="m 913.5699,-178.2191 c -6.5586,5.2822 -12.981,11.5784 -17.5699,18.6191 -4.7858,7.3428 -7.9408,16.2656 -10.0187,24.6705" />
    <polygon
       style="fill:#00fa9a;stroke:#00fa9a"
       id="polygon474"
       points="883.9437,-125.0752 882.5412,-135.5768 889.3962,-134.1593 " />
    <text
       style="font-size:14px;font-family:Times, serif;text-anchor:middle;fill:#000000"
       id="text476"
       font-size="14.00"
       y="-147"
       x="899.5">6</text>
  </g>
  <g
     class="edge"
     id="edge45"
     transform="translate(0.5,480.5)">
    <title
       id="title479">7-&gt;5</title>
    <path
       style="fill:none;stroke:#00fa9a"
       inkscape:connector-curvature="0"
       id="path481"
       d="M 909.9752,-212.7366 C 899.7038,-218.5665 888.2755,-225.2232 878,-231.6 c -11.3746,-7.0588 -13.3463,-10.2122 -25,-16.8 -9.3458,-5.2831 -19.5981,-10.4708 -29.4871,-15.1907" />
    <polygon
       style="fill:#00fa9a;stroke:#00fa9a"
       id="polygon483"
       points="814.1845,-267.9604 824.7249,-266.8879 821.7555,-260.5489 " />
    <text
       style="font-size:14px;font-family:Times, serif;text-anchor:middle;fill:#000000"
       id="text485"
       font-size="14.00"
       y="-235.8"
       x="881.5">2</text>
  </g>
  <g
     class="edge"
     id="edge46"
     transform="translate(0.5,480.5)">
    <title
       id="title488">5-&gt;11</title>
    <path
       style="fill:none;stroke:#00fa9a"
       inkscape:connector-curvature="0"
       id="path490"
       d="M 777.2767,-302.7997 C 778.8669,-329.8786 780.8284,-382.0142 776,-426 c -0.2812,-2.5616 -0.6717,-5.2076 -1.1303,-7.8482" />
    <polygon
       style="fill:#00fa9a;stroke:#00fa9a"
       id="polygon492"
       points="772.8517,-443.8153 778.2666,-434.7087 771.4058,-433.3196 " />
    <text
       style="font-size:14px;font-family:Times, serif;text-anchor:middle;fill:#000000"
       id="text494"
       font-size="14.00"
       y="-369"
       x="783.5">2</text>
  </g>
  <g
     class="edge"
     id="edge47"
     transform="translate(0.5,480.5)">
    <title
       id="title497">5-&gt;10</title>
    <path
       style="fill:none;stroke:#00fa9a"
       inkscape:connector-curvature="0"
       id="path499"
       d="m 851.3549,-294.669 c 28.7957,-5.5019 61.4635,-13.7079 89.6451,-25.731 12.3131,-5.2531 12.9388,-10.9919 25,-16.8 13.8057,-6.6482 29.1299,-12.4559 43.9484,-17.3551" />
    <polygon
       style="fill:#00fa9a;stroke:#00fa9a"
       id="polygon501"
       points="1019.5923,-357.643 1011.1359,-351.2602 1009.0012,-357.9268 " />
    <text
       style="font-size:14px;font-family:Times, serif;text-anchor:middle;fill:#000000"
       id="text503"
       font-size="14.00"
       y="-324.60001"
       x="969.5">2</text>
  </g>
  <g
     class="edge"
     id="edge48"
     transform="translate(0.5,480.5)">
    <title
       id="title506">5-&gt;9</title>
    <path
       style="fill:none;stroke:#00fa9a"
       inkscape:connector-curvature="0"
       id="path508"
       d="m 759.4449,-266.4313 c -4.6701,5.5508 -9.5379,11.8387 -13.4449,18.0313 -9.0834,14.3971 -10.8551,18.573 -16,34.8 -16.7642,52.8745 -23.2373,73.9841 -1,124.8 7.848,17.934 10.7841,23.8336 27,34.8 12.0964,8.1805 26.0481,14.522 40.1643,19.4323" />
    <polygon
       style="fill:#00fa9a;stroke:#00fa9a"
       id="polygon510"
       points="805.9425,-31.3918 795.3504,-31.1521 797.5128,-37.8098 " />
    <text
       style="font-size:14px;font-family:Times, serif;text-anchor:middle;fill:#000000"
       id="text512"
       font-size="14.00"
       y="-147"
       x="719.5">2</text>
  </g>
  <g
     class="edge"
     id="edge49"
     transform="translate(0.5,480.5)">
    <title
       id="title515">5-&gt;8</title>
    <path
       style="fill:none;stroke:#00fa9a"
       inkscape:connector-curvature="0"
       id="path517"
       d="m 775.7615,-266.2297 c 0.4578,22.2376 3.723,60.4096 19.2385,88.6297 10.626,19.3269 28.8783,35.4104 45.9291,47.3377" />
    <polygon
       style="fill:#00fa9a;stroke:#00fa9a"
       id="polygon519"
       points="849.6893,-124.4089 839.4301,-127.0545 843.3192,-132.8748 " />
    <text
       style="font-size:14px;font-family:Times, serif;text-anchor:middle;fill:#000000"
       id="text521"
       font-size="14.00"
       y="-191.39999"
       x="798.5">2</text>
  </g>
  <g
     class="edge"
     id="edge50"
     transform="translate(0.5,480.5)">
    <title
       id="title524">5-&gt;7</title>
    <path
       style="fill:none;stroke:#00fa9a"
       inkscape:connector-curvature="0"
       id="path526"
       d="m 798.6085,-266.8113 c 17.1417,13.1415 39.3988,29.7387 49.3915,35.2113 11.0235,6.0371 23.2734,11.5451 35.1678,16.3387" />
    <polygon
       style="fill:#00fa9a;stroke:#00fa9a"
       id="polygon528"
       points="892.6004,-211.5737 882.0124,-211.9551 884.5613,-218.4746 " />
    <text
       style="font-size:14px;font-family:Times, serif;text-anchor:middle;fill:#000000"
       id="text530"
       font-size="14.00"
       y="-235.8"
       x="851.5">2</text>
  </g>
  <g
     class="node"
     id="node12"
     transform="translate(98.268019,480.5)">
    <title
       id="title533">6</title>
    <ellipse
       style="fill:#708090;stroke:#000000"
       id="ellipse535"
       ry="18"
       rx="103.575"
       cy="-462"
       cx="1000" />
    <text
       style="font-size:14px;font-family:Times, serif;text-anchor:middle;fill:#000000"
       id="text537"
       font-size="14.00"
       y="-457.79999"
       x="1000">pacmaneatsfood(1,8)[0]</text>
  </g>
</svg>
